<mxfile host="Electron" agent="Mozilla/5.0 (Windows NT 10.0; Win64; x64) AppleWebKit/537.36 (KHTML, like Gecko) draw.io/24.2.5 Chrome/120.0.6099.109 Electron/28.1.0 Safari/537.36" modified="2024-12-24T19:51:42.670Z" version="24.2.5" etag="N1IfKM2IDlVGKwX0sz-D" type="device">
  <diagram name="Page-1" id="1tsaX5IVMCIp67dnrbAO">
    <mxGraphModel dx="3800" dy="2358" grid="1" gridSize="10" guides="1" tooltips="1" connect="1" arrows="1" fold="1" page="1" pageScale="1" pageWidth="850" pageHeight="1100" math="0" shadow="0">
      <root>
        <mxCell id="0" />
        <mxCell id="1" parent="0" />
        <mxCell id="oy_JtRO4Ry1S7o-juA2U-1" value="Blood Donation Management System&amp;nbsp;" style="text;html=1;align=center;verticalAlign=middle;whiteSpace=wrap;rounded=0;fillColor=none;" parent="1" vertex="1">
          <mxGeometry x="298" y="20" width="260" height="30" as="geometry" />
        </mxCell>
        <mxCell id="oy_JtRO4Ry1S7o-juA2U-15" value="&amp;lt;&amp;lt;abstract&amp;gt;&amp;gt;&lt;div&gt;Person&lt;/div&gt;" style="swimlane;fontStyle=1;align=center;verticalAlign=top;childLayout=stackLayout;horizontal=1;startSize=40;horizontalStack=0;resizeParent=1;resizeParentMax=0;resizeLast=0;collapsible=1;marginBottom=0;whiteSpace=wrap;html=1;" parent="1" vertex="1">
          <mxGeometry x="155" y="70" width="160" height="122" as="geometry" />
        </mxCell>
        <mxCell id="oy_JtRO4Ry1S7o-juA2U-16" value="# name: String&lt;div&gt;# dateOfBirth: Date&lt;/div&gt;&lt;div&gt;# national_id: Int&lt;/div&gt;&lt;div&gt;# address: Address&lt;/div&gt;" style="text;strokeColor=none;fillColor=none;align=left;verticalAlign=top;spacingLeft=4;spacingRight=4;overflow=hidden;rotatable=0;points=[[0,0.5],[1,0.5]];portConstraint=eastwest;whiteSpace=wrap;html=1;" parent="oy_JtRO4Ry1S7o-juA2U-15" vertex="1">
          <mxGeometry y="40" width="160" height="74" as="geometry" />
        </mxCell>
        <mxCell id="oy_JtRO4Ry1S7o-juA2U-17" value="" style="line;strokeWidth=1;fillColor=none;align=left;verticalAlign=middle;spacingTop=-1;spacingLeft=3;spacingRight=3;rotatable=0;labelPosition=right;points=[];portConstraint=eastwest;strokeColor=inherit;" parent="oy_JtRO4Ry1S7o-juA2U-15" vertex="1">
          <mxGeometry y="114" width="160" height="8" as="geometry" />
        </mxCell>
        <mxCell id="oy_JtRO4Ry1S7o-juA2U-19" value="Address" style="swimlane;fontStyle=1;align=center;verticalAlign=top;childLayout=stackLayout;horizontal=1;startSize=26;horizontalStack=0;resizeParent=1;resizeParentMax=0;resizeLast=0;collapsible=1;marginBottom=0;whiteSpace=wrap;html=1;" parent="1" vertex="1">
          <mxGeometry x="380" y="170" width="160" height="88" as="geometry">
            <mxRectangle x="610" y="100" width="80" height="30" as="alternateBounds" />
          </mxGeometry>
        </mxCell>
        <mxCell id="oy_JtRO4Ry1S7o-juA2U-20" value="- id: int&lt;div&gt;- name: String&lt;/div&gt;&lt;div&gt;- parentID: int&lt;/div&gt;" style="text;strokeColor=none;fillColor=none;align=left;verticalAlign=top;spacingLeft=4;spacingRight=4;overflow=hidden;rotatable=0;points=[[0,0.5],[1,0.5]];portConstraint=eastwest;whiteSpace=wrap;html=1;" parent="oy_JtRO4Ry1S7o-juA2U-19" vertex="1">
          <mxGeometry y="26" width="160" height="54" as="geometry" />
        </mxCell>
        <mxCell id="oy_JtRO4Ry1S7o-juA2U-21" value="" style="line;strokeWidth=1;fillColor=none;align=left;verticalAlign=middle;spacingTop=-1;spacingLeft=3;spacingRight=3;rotatable=0;labelPosition=right;points=[];portConstraint=eastwest;strokeColor=inherit;" parent="oy_JtRO4Ry1S7o-juA2U-19" vertex="1">
          <mxGeometry y="80" width="160" height="8" as="geometry" />
        </mxCell>
        <mxCell id="oy_JtRO4Ry1S7o-juA2U-26" value="" style="endArrow=none;html=1;endSize=12;startArrow=diamondThin;startSize=14;startFill=0;edgeStyle=orthogonalEdgeStyle;rounded=0;entryX=0;entryY=0.5;entryDx=0;entryDy=0;endFill=0;" parent="1" source="oy_JtRO4Ry1S7o-juA2U-16" target="oy_JtRO4Ry1S7o-juA2U-20" edge="1">
          <mxGeometry x="-0.0196" relative="1" as="geometry">
            <mxPoint x="265" y="380" as="sourcePoint" />
            <mxPoint x="401" y="213" as="targetPoint" />
            <mxPoint as="offset" />
          </mxGeometry>
        </mxCell>
        <mxCell id="oy_JtRO4Ry1S7o-juA2U-33" style="edgeStyle=orthogonalEdgeStyle;rounded=0;orthogonalLoop=1;jettySize=auto;html=1;exitX=0.5;exitY=0;exitDx=0;exitDy=0;endArrow=block;endFill=0;entryX=0.5;entryY=1;entryDx=0;entryDy=0;" parent="1" source="oy_JtRO4Ry1S7o-juA2U-29" target="oy_JtRO4Ry1S7o-juA2U-15" edge="1">
          <mxGeometry relative="1" as="geometry">
            <mxPoint x="315" y="236" as="targetPoint" />
            <Array as="points">
              <mxPoint x="235" y="340" />
            </Array>
          </mxGeometry>
        </mxCell>
        <mxCell id="oy_JtRO4Ry1S7o-juA2U-29" value="Donor" style="swimlane;fontStyle=1;align=center;verticalAlign=top;childLayout=stackLayout;horizontal=1;startSize=26;horizontalStack=0;resizeParent=1;resizeParentMax=0;resizeLast=0;collapsible=1;marginBottom=0;whiteSpace=wrap;html=1;" parent="1" vertex="1">
          <mxGeometry x="110" y="380" width="250" height="90" as="geometry" />
        </mxCell>
        <mxCell id="p5AdowQUtNtMsJWCQkt6-107" value="- remote: DonationController" style="text;strokeColor=none;fillColor=none;align=left;verticalAlign=top;spacingLeft=4;spacingRight=4;overflow=hidden;rotatable=0;points=[[0,0.5],[1,0.5]];portConstraint=eastwest;whiteSpace=wrap;html=1;" parent="oy_JtRO4Ry1S7o-juA2U-29" vertex="1">
          <mxGeometry y="26" width="250" height="24" as="geometry" />
        </mxCell>
        <mxCell id="oy_JtRO4Ry1S7o-juA2U-31" value="" style="line;strokeWidth=1;fillColor=none;align=left;verticalAlign=middle;spacingTop=-1;spacingLeft=3;spacingRight=3;rotatable=0;labelPosition=right;points=[];portConstraint=eastwest;strokeColor=inherit;" parent="oy_JtRO4Ry1S7o-juA2U-29" vertex="1">
          <mxGeometry y="50" width="250" height="8" as="geometry" />
        </mxCell>
        <mxCell id="HFf-VFwJF2qIIWDYnhbF-6" value="- SetRemote(Donor donor):bool" style="text;strokeColor=none;fillColor=none;align=left;verticalAlign=top;spacingLeft=4;spacingRight=4;overflow=hidden;rotatable=0;points=[[0,0.5],[1,0.5]];portConstraint=eastwest;whiteSpace=wrap;html=1;" parent="oy_JtRO4Ry1S7o-juA2U-29" vertex="1">
          <mxGeometry y="58" width="250" height="32" as="geometry" />
        </mxCell>
        <mxCell id="JcLtWegY5_qB5tt3cv_g-43" style="edgeStyle=orthogonalEdgeStyle;rounded=0;orthogonalLoop=1;jettySize=auto;html=1;entryX=0;entryY=0.5;entryDx=0;entryDy=0;endArrow=none;endFill=0;startArrow=block;startFill=0;" parent="1" source="oy_JtRO4Ry1S7o-juA2U-34" target="KDsEG0qkIhwoRO3FU9QZ-24" edge="1">
          <mxGeometry relative="1" as="geometry">
            <Array as="points">
              <mxPoint x="770" y="944" />
            </Array>
          </mxGeometry>
        </mxCell>
        <mxCell id="oy_JtRO4Ry1S7o-juA2U-34" value="Donation" style="swimlane;fontStyle=1;align=center;verticalAlign=top;childLayout=stackLayout;horizontal=1;startSize=26;horizontalStack=0;resizeParent=1;resizeParentMax=0;resizeLast=0;collapsible=1;marginBottom=0;whiteSpace=wrap;html=1;" parent="1" vertex="1">
          <mxGeometry x="690" y="830" width="160" height="68" as="geometry" />
        </mxCell>
        <mxCell id="oy_JtRO4Ry1S7o-juA2U-35" value="- Donation_ID: Int&lt;div&gt;- donor: Donor&lt;/div&gt;" style="text;strokeColor=none;fillColor=none;align=left;verticalAlign=top;spacingLeft=4;spacingRight=4;overflow=hidden;rotatable=0;points=[[0,0.5],[1,0.5]];portConstraint=eastwest;whiteSpace=wrap;html=1;" parent="oy_JtRO4Ry1S7o-juA2U-34" vertex="1">
          <mxGeometry y="26" width="160" height="34" as="geometry" />
        </mxCell>
        <mxCell id="oy_JtRO4Ry1S7o-juA2U-36" value="" style="line;strokeWidth=1;fillColor=none;align=left;verticalAlign=middle;spacingTop=-1;spacingLeft=3;spacingRight=3;rotatable=0;labelPosition=right;points=[];portConstraint=eastwest;strokeColor=inherit;" parent="oy_JtRO4Ry1S7o-juA2U-34" vertex="1">
          <mxGeometry y="60" width="160" height="8" as="geometry" />
        </mxCell>
        <mxCell id="XRhY1l17-4_ida-8EXZL-33" style="edgeStyle=orthogonalEdgeStyle;rounded=0;orthogonalLoop=1;jettySize=auto;html=1;endArrow=block;endFill=0;" parent="1" source="oy_JtRO4Ry1S7o-juA2U-54" target="oy_JtRO4Ry1S7o-juA2U-34" edge="1">
          <mxGeometry relative="1" as="geometry">
            <Array as="points">
              <mxPoint x="516" y="944" />
              <mxPoint x="770" y="944" />
            </Array>
          </mxGeometry>
        </mxCell>
        <mxCell id="oy_JtRO4Ry1S7o-juA2U-54" value="BloodDonation" style="swimlane;fontStyle=1;align=center;verticalAlign=top;childLayout=stackLayout;horizontal=1;startSize=26;horizontalStack=0;resizeParent=1;resizeParentMax=0;resizeLast=0;collapsible=1;marginBottom=0;whiteSpace=wrap;html=1;" parent="1" vertex="1">
          <mxGeometry x="330" y="964" width="372" height="110" as="geometry" />
        </mxCell>
        <mxCell id="oy_JtRO4Ry1S7o-juA2U-55" value="- Number_of_liters: Int&lt;div&gt;- BloodTypeEnum: Enum&lt;/div&gt;" style="text;strokeColor=none;fillColor=none;align=left;verticalAlign=top;spacingLeft=4;spacingRight=4;overflow=hidden;rotatable=0;points=[[0,0.5],[1,0.5]];portConstraint=eastwest;whiteSpace=wrap;html=1;" parent="oy_JtRO4Ry1S7o-juA2U-54" vertex="1">
          <mxGeometry y="26" width="372" height="44" as="geometry" />
        </mxCell>
        <mxCell id="oy_JtRO4Ry1S7o-juA2U-56" value="" style="line;strokeWidth=1;fillColor=none;align=left;verticalAlign=middle;spacingTop=-1;spacingLeft=3;spacingRight=3;rotatable=0;labelPosition=right;points=[];portConstraint=eastwest;strokeColor=inherit;" parent="oy_JtRO4Ry1S7o-juA2U-54" vertex="1">
          <mxGeometry y="70" width="372" height="8" as="geometry" />
        </mxCell>
        <mxCell id="oy_JtRO4Ry1S7o-juA2U-57" value="- increaseBloodStock(BloodStock bloodStock):bool" style="text;strokeColor=none;fillColor=none;align=left;verticalAlign=top;spacingLeft=4;spacingRight=4;overflow=hidden;rotatable=0;points=[[0,0.5],[1,0.5]];portConstraint=eastwest;whiteSpace=wrap;html=1;" parent="oy_JtRO4Ry1S7o-juA2U-54" vertex="1">
          <mxGeometry y="78" width="372" height="32" as="geometry" />
        </mxCell>
        <mxCell id="XRhY1l17-4_ida-8EXZL-11" style="edgeStyle=orthogonalEdgeStyle;rounded=0;orthogonalLoop=1;jettySize=auto;html=1;entryX=0.5;entryY=1;entryDx=0;entryDy=0;" parent="1" edge="1">
          <mxGeometry relative="1" as="geometry">
            <mxPoint x="1540" y="409" as="targetPoint" />
          </mxGeometry>
        </mxCell>
        <mxCell id="XRhY1l17-4_ida-8EXZL-22" style="edgeStyle=orthogonalEdgeStyle;rounded=0;orthogonalLoop=1;jettySize=auto;html=1;entryX=1;entryY=0.5;entryDx=0;entryDy=0;" parent="1" edge="1">
          <mxGeometry relative="1" as="geometry">
            <mxPoint x="1620" y="364" as="targetPoint" />
          </mxGeometry>
        </mxCell>
        <mxCell id="XRhY1l17-4_ida-8EXZL-13" style="edgeStyle=orthogonalEdgeStyle;rounded=0;orthogonalLoop=1;jettySize=auto;html=1;entryX=0.5;entryY=1;entryDx=0;entryDy=0;" parent="1" edge="1">
          <mxGeometry relative="1" as="geometry">
            <mxPoint x="1540" y="409" as="targetPoint" />
          </mxGeometry>
        </mxCell>
        <mxCell id="qyeKzw2rdfaBx60x_Buw-5" value="&amp;lt;&amp;lt;Interface&amp;gt;&amp;gt;&lt;div&gt;MoneyDonationMethod&lt;/div&gt;" style="swimlane;fontStyle=1;align=center;verticalAlign=top;childLayout=stackLayout;horizontal=1;startSize=40;horizontalStack=0;resizeParent=1;resizeParentMax=0;resizeLast=0;collapsible=1;marginBottom=0;whiteSpace=wrap;html=1;" parent="1" vertex="1">
          <mxGeometry x="1420" y="924" width="160" height="74" as="geometry" />
        </mxCell>
        <mxCell id="qyeKzw2rdfaBx60x_Buw-7" value="" style="line;strokeWidth=1;fillColor=none;align=left;verticalAlign=middle;spacingTop=-1;spacingLeft=3;spacingRight=3;rotatable=0;labelPosition=right;points=[];portConstraint=eastwest;strokeColor=inherit;" parent="qyeKzw2rdfaBx60x_Buw-5" vertex="1">
          <mxGeometry y="40" width="160" height="8" as="geometry" />
        </mxCell>
        <mxCell id="qyeKzw2rdfaBx60x_Buw-8" value="- donate(amount:float): bool" style="text;strokeColor=none;fillColor=none;align=left;verticalAlign=top;spacingLeft=4;spacingRight=4;overflow=hidden;rotatable=0;points=[[0,0.5],[1,0.5]];portConstraint=eastwest;whiteSpace=wrap;html=1;" parent="qyeKzw2rdfaBx60x_Buw-5" vertex="1">
          <mxGeometry y="48" width="160" height="26" as="geometry" />
        </mxCell>
        <mxCell id="XRhY1l17-4_ida-8EXZL-30" style="edgeStyle=orthogonalEdgeStyle;rounded=0;orthogonalLoop=1;jettySize=auto;html=1;endArrow=block;endFill=0;" parent="1" source="qyeKzw2rdfaBx60x_Buw-9" target="qyeKzw2rdfaBx60x_Buw-5" edge="1">
          <mxGeometry relative="1" as="geometry">
            <Array as="points">
              <mxPoint x="1500" y="1074" />
            </Array>
          </mxGeometry>
        </mxCell>
        <mxCell id="qyeKzw2rdfaBx60x_Buw-9" value="Online" style="swimlane;fontStyle=1;align=center;verticalAlign=top;childLayout=stackLayout;horizontal=1;startSize=26;horizontalStack=0;resizeParent=1;resizeParentMax=0;resizeLast=0;collapsible=1;marginBottom=0;whiteSpace=wrap;html=1;fillColor=#ffe6cc;strokeColor=#d79b00;" parent="1" vertex="1">
          <mxGeometry x="1230" y="1110" width="241.75" height="76" as="geometry" />
        </mxCell>
        <mxCell id="KDsEG0qkIhwoRO3FU9QZ-46" value="- paymentMethod: PaymentMethod" style="text;strokeColor=#d79b00;fillColor=#ffe6cc;align=left;verticalAlign=top;spacingLeft=4;spacingRight=4;overflow=hidden;rotatable=0;points=[[0,0.5],[1,0.5]];portConstraint=eastwest;whiteSpace=wrap;html=1;" parent="qyeKzw2rdfaBx60x_Buw-9" vertex="1">
          <mxGeometry y="26" width="241.75" height="24" as="geometry" />
        </mxCell>
        <mxCell id="qyeKzw2rdfaBx60x_Buw-12" value="- donate(amount:float): bool" style="text;strokeColor=#d79b00;fillColor=#ffe6cc;align=left;verticalAlign=top;spacingLeft=4;spacingRight=4;overflow=hidden;rotatable=0;points=[[0,0.5],[1,0.5]];portConstraint=eastwest;whiteSpace=wrap;html=1;" parent="qyeKzw2rdfaBx60x_Buw-9" vertex="1">
          <mxGeometry y="50" width="241.75" height="26" as="geometry" />
        </mxCell>
        <mxCell id="XRhY1l17-4_ida-8EXZL-32" style="edgeStyle=orthogonalEdgeStyle;rounded=0;orthogonalLoop=1;jettySize=auto;html=1;endArrow=block;endFill=0;" parent="1" source="qyeKzw2rdfaBx60x_Buw-25" target="qyeKzw2rdfaBx60x_Buw-5" edge="1">
          <mxGeometry relative="1" as="geometry">
            <Array as="points">
              <mxPoint x="1610" y="1074" />
              <mxPoint x="1500" y="1074" />
            </Array>
          </mxGeometry>
        </mxCell>
        <mxCell id="qyeKzw2rdfaBx60x_Buw-25" value="Cash" style="swimlane;fontStyle=1;align=center;verticalAlign=top;childLayout=stackLayout;horizontal=1;startSize=26;horizontalStack=0;resizeParent=1;resizeParentMax=0;resizeLast=0;collapsible=1;marginBottom=0;whiteSpace=wrap;html=1;" parent="1" vertex="1">
          <mxGeometry x="1530" y="1110" width="160" height="60" as="geometry" />
        </mxCell>
        <mxCell id="qyeKzw2rdfaBx60x_Buw-27" value="" style="line;strokeWidth=1;fillColor=none;align=left;verticalAlign=middle;spacingTop=-1;spacingLeft=3;spacingRight=3;rotatable=0;labelPosition=right;points=[];portConstraint=eastwest;strokeColor=inherit;" parent="qyeKzw2rdfaBx60x_Buw-25" vertex="1">
          <mxGeometry y="26" width="160" height="8" as="geometry" />
        </mxCell>
        <mxCell id="qyeKzw2rdfaBx60x_Buw-28" value="- donate(amount:float): bool" style="text;strokeColor=none;fillColor=none;align=left;verticalAlign=top;spacingLeft=4;spacingRight=4;overflow=hidden;rotatable=0;points=[[0,0.5],[1,0.5]];portConstraint=eastwest;whiteSpace=wrap;html=1;" parent="qyeKzw2rdfaBx60x_Buw-25" vertex="1">
          <mxGeometry y="34" width="160" height="26" as="geometry" />
        </mxCell>
        <mxCell id="qyeKzw2rdfaBx60x_Buw-33" value="&lt;div&gt;&amp;lt;&amp;lt;Interface&amp;gt;&amp;gt;&lt;/div&gt;IVolunteer" style="swimlane;fontStyle=1;align=center;verticalAlign=top;childLayout=stackLayout;horizontal=1;startSize=50;horizontalStack=0;resizeParent=1;resizeParentMax=0;resizeLast=0;collapsible=1;marginBottom=0;whiteSpace=wrap;html=1;fillColor=#d5e8d4;strokeColor=#82b366;" parent="1" vertex="1">
          <mxGeometry x="-450" y="910" width="160" height="76" as="geometry" />
        </mxCell>
        <mxCell id="qyeKzw2rdfaBx60x_Buw-36" value="- addSkill(): void" style="text;strokeColor=#82b366;fillColor=#d5e8d4;align=left;verticalAlign=top;spacingLeft=4;spacingRight=4;overflow=hidden;rotatable=0;points=[[0,0.5],[1,0.5]];portConstraint=eastwest;whiteSpace=wrap;html=1;" parent="qyeKzw2rdfaBx60x_Buw-33" vertex="1">
          <mxGeometry y="50" width="160" height="26" as="geometry" />
        </mxCell>
        <mxCell id="qyeKzw2rdfaBx60x_Buw-43" value="&amp;lt;&amp;lt;Abstract&amp;gt;&amp;gt;&lt;div&gt;Event&lt;/div&gt;" style="swimlane;fontStyle=1;align=center;verticalAlign=top;childLayout=stackLayout;horizontal=1;startSize=44;horizontalStack=0;resizeParent=1;resizeParentMax=0;resizeLast=0;collapsible=1;marginBottom=0;whiteSpace=wrap;html=1;fillColor=#f8cecc;strokeColor=#b85450;" parent="1" vertex="1">
          <mxGeometry x="-520" y="266" width="160" height="120" as="geometry" />
        </mxCell>
        <mxCell id="qyeKzw2rdfaBx60x_Buw-44" value="+ title: String" style="text;strokeColor=#b85450;fillColor=#f8cecc;align=left;verticalAlign=top;spacingLeft=4;spacingRight=4;overflow=hidden;rotatable=0;points=[[0,0.5],[1,0.5]];portConstraint=eastwest;whiteSpace=wrap;html=1;" parent="qyeKzw2rdfaBx60x_Buw-43" vertex="1">
          <mxGeometry y="44" width="160" height="26" as="geometry" />
        </mxCell>
        <mxCell id="KDsEG0qkIhwoRO3FU9QZ-127" value="+ address: Address" style="text;strokeColor=#b85450;fillColor=#f8cecc;align=left;verticalAlign=top;spacingLeft=4;spacingRight=4;overflow=hidden;rotatable=0;points=[[0,0.5],[1,0.5]];portConstraint=eastwest;whiteSpace=wrap;html=1;" parent="qyeKzw2rdfaBx60x_Buw-43" vertex="1">
          <mxGeometry y="70" width="160" height="26" as="geometry" />
        </mxCell>
        <mxCell id="KDsEG0qkIhwoRO3FU9QZ-128" value="+ dateTime: DateTime" style="text;strokeColor=#b85450;fillColor=#f8cecc;align=left;verticalAlign=top;spacingLeft=4;spacingRight=4;overflow=hidden;rotatable=0;points=[[0,0.5],[1,0.5]];portConstraint=eastwest;whiteSpace=wrap;html=1;" parent="qyeKzw2rdfaBx60x_Buw-43" vertex="1">
          <mxGeometry y="96" width="160" height="24" as="geometry" />
        </mxCell>
        <mxCell id="qyeKzw2rdfaBx60x_Buw-47" value="WorkshopEvent" style="swimlane;fontStyle=1;align=center;verticalAlign=top;childLayout=stackLayout;horizontal=1;startSize=26;horizontalStack=0;resizeParent=1;resizeParentMax=0;resizeLast=0;collapsible=1;marginBottom=0;whiteSpace=wrap;html=1;fillColor=#f8cecc;strokeColor=#b85450;" parent="1" vertex="1">
          <mxGeometry x="-540" y="472" width="200" height="156" as="geometry" />
        </mxCell>
        <mxCell id="qyeKzw2rdfaBx60x_Buw-48" value="+ instructor: String" style="text;strokeColor=#b85450;fillColor=#f8cecc;align=left;verticalAlign=top;spacingLeft=4;spacingRight=4;overflow=hidden;rotatable=0;points=[[0,0.5],[1,0.5]];portConstraint=eastwest;whiteSpace=wrap;html=1;" parent="qyeKzw2rdfaBx60x_Buw-47" vertex="1">
          <mxGeometry y="26" width="200" height="26" as="geometry" />
        </mxCell>
        <mxCell id="KDsEG0qkIhwoRO3FU9QZ-132" value="+ maxAttendees: int" style="text;strokeColor=#b85450;fillColor=#f8cecc;align=left;verticalAlign=top;spacingLeft=4;spacingRight=4;overflow=hidden;rotatable=0;points=[[0,0.5],[1,0.5]];portConstraint=eastwest;whiteSpace=wrap;html=1;" parent="qyeKzw2rdfaBx60x_Buw-47" vertex="1">
          <mxGeometry y="52" width="200" height="26" as="geometry" />
        </mxCell>
        <mxCell id="KDsEG0qkIhwoRO3FU9QZ-133" value="+ materials: list&amp;lt;String&amp;gt;" style="text;strokeColor=#b85450;fillColor=#f8cecc;align=left;verticalAlign=top;spacingLeft=4;spacingRight=4;overflow=hidden;rotatable=0;points=[[0,0.5],[1,0.5]];portConstraint=eastwest;whiteSpace=wrap;html=1;" parent="qyeKzw2rdfaBx60x_Buw-47" vertex="1">
          <mxGeometry y="78" width="200" height="26" as="geometry" />
        </mxCell>
        <mxCell id="qyeKzw2rdfaBx60x_Buw-50" value="+ registerAttendees(string): bool" style="text;strokeColor=#b85450;fillColor=#f8cecc;align=left;verticalAlign=top;spacingLeft=4;spacingRight=4;overflow=hidden;rotatable=0;points=[[0,0.5],[1,0.5]];portConstraint=eastwest;whiteSpace=wrap;html=1;" parent="qyeKzw2rdfaBx60x_Buw-47" vertex="1">
          <mxGeometry y="104" width="200" height="26" as="geometry" />
        </mxCell>
        <mxCell id="KDsEG0qkIhwoRO3FU9QZ-134" value="+ addMaterials(String): void" style="text;strokeColor=#b85450;fillColor=#f8cecc;align=left;verticalAlign=top;spacingLeft=4;spacingRight=4;overflow=hidden;rotatable=0;points=[[0,0.5],[1,0.5]];portConstraint=eastwest;whiteSpace=wrap;html=1;" parent="qyeKzw2rdfaBx60x_Buw-47" vertex="1">
          <mxGeometry y="130" width="200" height="26" as="geometry" />
        </mxCell>
        <mxCell id="KDsEG0qkIhwoRO3FU9QZ-125" style="edgeStyle=orthogonalEdgeStyle;rounded=0;orthogonalLoop=1;jettySize=auto;html=1;entryX=0;entryY=0.5;entryDx=0;entryDy=0;fillColor=#f8cecc;strokeColor=#b85450;endArrow=block;endFill=0;" parent="1" source="qyeKzw2rdfaBx60x_Buw-51" target="qyeKzw2rdfaBx60x_Buw-46" edge="1">
          <mxGeometry relative="1" as="geometry" />
        </mxCell>
        <mxCell id="qyeKzw2rdfaBx60x_Buw-51" value="FundraiserEvent" style="swimlane;fontStyle=1;align=center;verticalAlign=top;childLayout=stackLayout;horizontal=1;startSize=26;horizontalStack=0;resizeParent=1;resizeParentMax=0;resizeLast=0;collapsible=1;marginBottom=0;whiteSpace=wrap;html=1;fillColor=#f8cecc;strokeColor=#b85450;" parent="1" vertex="1">
          <mxGeometry x="-810" y="470" width="220" height="104" as="geometry" />
        </mxCell>
        <mxCell id="qyeKzw2rdfaBx60x_Buw-52" value="+ goalAmount: float" style="text;strokeColor=#b85450;fillColor=#f8cecc;align=left;verticalAlign=top;spacingLeft=4;spacingRight=4;overflow=hidden;rotatable=0;points=[[0,0.5],[1,0.5]];portConstraint=eastwest;whiteSpace=wrap;html=1;" parent="qyeKzw2rdfaBx60x_Buw-51" vertex="1">
          <mxGeometry y="26" width="220" height="26" as="geometry" />
        </mxCell>
        <mxCell id="KDsEG0qkIhwoRO3FU9QZ-129" value="+ raisedAmount: float" style="text;strokeColor=#b85450;fillColor=#f8cecc;align=left;verticalAlign=top;spacingLeft=4;spacingRight=4;overflow=hidden;rotatable=0;points=[[0,0.5],[1,0.5]];portConstraint=eastwest;whiteSpace=wrap;html=1;" parent="qyeKzw2rdfaBx60x_Buw-51" vertex="1">
          <mxGeometry y="52" width="220" height="26" as="geometry" />
        </mxCell>
        <mxCell id="qyeKzw2rdfaBx60x_Buw-54" value="+ updateRaisedAmount(float): bool" style="text;strokeColor=#b85450;fillColor=#f8cecc;align=left;verticalAlign=top;spacingLeft=4;spacingRight=4;overflow=hidden;rotatable=0;points=[[0,0.5],[1,0.5]];portConstraint=eastwest;whiteSpace=wrap;html=1;" parent="qyeKzw2rdfaBx60x_Buw-51" vertex="1">
          <mxGeometry y="78" width="220" height="26" as="geometry" />
        </mxCell>
        <mxCell id="qyeKzw2rdfaBx60x_Buw-55" value="OutReachEvent" style="swimlane;fontStyle=1;align=center;verticalAlign=top;childLayout=stackLayout;horizontal=1;startSize=26;horizontalStack=0;resizeParent=1;resizeParentMax=0;resizeLast=0;collapsible=1;marginBottom=0;whiteSpace=wrap;html=1;fillColor=#f8cecc;strokeColor=#b85450;" parent="1" vertex="1">
          <mxGeometry x="-290" y="470" width="200" height="156" as="geometry" />
        </mxCell>
        <mxCell id="qyeKzw2rdfaBx60x_Buw-56" value="+ audience: String" style="text;strokeColor=#b85450;fillColor=#f8cecc;align=left;verticalAlign=top;spacingLeft=4;spacingRight=4;overflow=hidden;rotatable=0;points=[[0,0.5],[1,0.5]];portConstraint=eastwest;whiteSpace=wrap;html=1;" parent="qyeKzw2rdfaBx60x_Buw-55" vertex="1">
          <mxGeometry y="26" width="200" height="26" as="geometry" />
        </mxCell>
        <mxCell id="KDsEG0qkIhwoRO3FU9QZ-137" value="+ activities: list&amp;lt;String&amp;gt;" style="text;strokeColor=#b85450;fillColor=#f8cecc;align=left;verticalAlign=top;spacingLeft=4;spacingRight=4;overflow=hidden;rotatable=0;points=[[0,0.5],[1,0.5]];portConstraint=eastwest;whiteSpace=wrap;html=1;" parent="qyeKzw2rdfaBx60x_Buw-55" vertex="1">
          <mxGeometry y="52" width="200" height="26" as="geometry" />
        </mxCell>
        <mxCell id="KDsEG0qkIhwoRO3FU9QZ-138" value="+ listOfOrganizations: list&amp;lt;String&amp;gt;" style="text;strokeColor=#b85450;fillColor=#f8cecc;align=left;verticalAlign=top;spacingLeft=4;spacingRight=4;overflow=hidden;rotatable=0;points=[[0,0.5],[1,0.5]];portConstraint=eastwest;whiteSpace=wrap;html=1;" parent="qyeKzw2rdfaBx60x_Buw-55" vertex="1">
          <mxGeometry y="78" width="200" height="26" as="geometry" />
        </mxCell>
        <mxCell id="KDsEG0qkIhwoRO3FU9QZ-139" value="+ inviteOrganization(String): bool" style="text;strokeColor=#b85450;fillColor=#f8cecc;align=left;verticalAlign=top;spacingLeft=4;spacingRight=4;overflow=hidden;rotatable=0;points=[[0,0.5],[1,0.5]];portConstraint=eastwest;whiteSpace=wrap;html=1;" parent="qyeKzw2rdfaBx60x_Buw-55" vertex="1">
          <mxGeometry y="104" width="200" height="26" as="geometry" />
        </mxCell>
        <mxCell id="qyeKzw2rdfaBx60x_Buw-58" value="+ addActivity(String): bool" style="text;strokeColor=#b85450;fillColor=#f8cecc;align=left;verticalAlign=top;spacingLeft=4;spacingRight=4;overflow=hidden;rotatable=0;points=[[0,0.5],[1,0.5]];portConstraint=eastwest;whiteSpace=wrap;html=1;" parent="qyeKzw2rdfaBx60x_Buw-55" vertex="1">
          <mxGeometry y="130" width="200" height="26" as="geometry" />
        </mxCell>
        <mxCell id="qyeKzw2rdfaBx60x_Buw-81" style="edgeStyle=orthogonalEdgeStyle;rounded=0;orthogonalLoop=1;jettySize=auto;html=1;exitX=0.983;exitY=0.376;exitDx=0;exitDy=0;fillColor=#f8cecc;strokeColor=#b85450;exitPerimeter=0;" parent="1" source="HFf-VFwJF2qIIWDYnhbF-48" edge="1">
          <mxGeometry relative="1" as="geometry">
            <mxPoint x="-920" y="319" as="sourcePoint" />
            <mxPoint x="-520" y="330" as="targetPoint" />
            <Array as="points">
              <mxPoint x="-943" y="330" />
              <mxPoint x="-520" y="330" />
            </Array>
          </mxGeometry>
        </mxCell>
        <mxCell id="KDsEG0qkIhwoRO3FU9QZ-122" style="edgeStyle=orthogonalEdgeStyle;rounded=0;orthogonalLoop=1;jettySize=auto;html=1;exitX=0.371;exitY=-0.011;exitDx=0;exitDy=0;endArrow=block;endFill=0;entryX=0.5;entryY=1;entryDx=0;entryDy=0;exitPerimeter=0;" parent="1" source="qyeKzw2rdfaBx60x_Buw-83" target="oy_JtRO4Ry1S7o-juA2U-15" edge="1">
          <mxGeometry relative="1" as="geometry">
            <Array as="points">
              <mxPoint x="-581" y="690" />
              <mxPoint x="-10" y="690" />
              <mxPoint x="-10" y="260" />
              <mxPoint x="235" y="260" />
            </Array>
            <mxPoint x="150" y="200" as="targetPoint" />
          </mxGeometry>
        </mxCell>
        <mxCell id="JcLtWegY5_qB5tt3cv_g-27" style="edgeStyle=orthogonalEdgeStyle;rounded=0;orthogonalLoop=1;jettySize=auto;html=1;fillColor=#d5e8d4;strokeColor=#82b366;endArrow=block;endFill=0;dashed=1;dashPattern=8 8;" parent="1" source="qyeKzw2rdfaBx60x_Buw-83" target="qyeKzw2rdfaBx60x_Buw-36" edge="1">
          <mxGeometry relative="1" as="geometry">
            <Array as="points">
              <mxPoint x="-580" y="1050" />
              <mxPoint x="-370" y="1050" />
            </Array>
          </mxGeometry>
        </mxCell>
        <mxCell id="qyeKzw2rdfaBx60x_Buw-83" value="Volunteer" style="swimlane;fontStyle=1;align=center;verticalAlign=top;childLayout=stackLayout;horizontal=1;startSize=26;horizontalStack=0;resizeParent=1;resizeParentMax=0;resizeLast=0;collapsible=1;marginBottom=0;whiteSpace=wrap;html=1;fillColor=#d5e8d4;strokeColor=#82b366;" parent="1" vertex="1">
          <mxGeometry x="-640" y="1101" width="160" height="96" as="geometry" />
        </mxCell>
        <mxCell id="qyeKzw2rdfaBx60x_Buw-84" value="- isAvailable: bool&lt;div&gt;- skills: list&amp;lt;String&amp;gt;&lt;/div&gt;" style="text;strokeColor=#82b366;fillColor=#d5e8d4;align=left;verticalAlign=top;spacingLeft=4;spacingRight=4;overflow=hidden;rotatable=0;points=[[0,0.5],[1,0.5]];portConstraint=eastwest;whiteSpace=wrap;html=1;" parent="qyeKzw2rdfaBx60x_Buw-83" vertex="1">
          <mxGeometry y="26" width="160" height="44" as="geometry" />
        </mxCell>
        <mxCell id="qyeKzw2rdfaBx60x_Buw-86" value="- addSkill(): void" style="text;strokeColor=#82b366;fillColor=#d5e8d4;align=left;verticalAlign=top;spacingLeft=4;spacingRight=4;overflow=hidden;rotatable=0;points=[[0,0.5],[1,0.5]];portConstraint=eastwest;whiteSpace=wrap;html=1;" parent="qyeKzw2rdfaBx60x_Buw-83" vertex="1">
          <mxGeometry y="70" width="160" height="26" as="geometry" />
        </mxCell>
        <mxCell id="XRhY1l17-4_ida-8EXZL-24" style="edgeStyle=orthogonalEdgeStyle;rounded=0;orthogonalLoop=1;jettySize=auto;html=1;endArrow=block;endFill=0;fillColor=#d5e8d4;strokeColor=#82b366;dashed=1;dashPattern=8 8;" parent="1" source="qyeKzw2rdfaBx60x_Buw-88" edge="1">
          <mxGeometry relative="1" as="geometry">
            <mxPoint x="-370" y="986" as="targetPoint" />
            <Array as="points">
              <mxPoint x="-210" y="1050" />
              <mxPoint x="-370" y="1050" />
            </Array>
          </mxGeometry>
        </mxCell>
        <mxCell id="JcLtWegY5_qB5tt3cv_g-3" style="edgeStyle=orthogonalEdgeStyle;rounded=0;orthogonalLoop=1;jettySize=auto;html=1;exitX=0.75;exitY=0;exitDx=0;exitDy=0;entryX=1;entryY=0.5;entryDx=0;entryDy=0;startArrow=diamondThin;startFill=0;startSize=12;fillColor=#d5e8d4;strokeColor=#82b366;" parent="1" source="qyeKzw2rdfaBx60x_Buw-88" target="qyeKzw2rdfaBx60x_Buw-33" edge="1">
          <mxGeometry relative="1" as="geometry" />
        </mxCell>
        <mxCell id="qyeKzw2rdfaBx60x_Buw-88" value="&amp;lt;&amp;lt;abstract&amp;gt;&amp;gt;&lt;div&gt;Skills_Decorator&lt;/div&gt;" style="swimlane;fontStyle=1;align=center;verticalAlign=top;childLayout=stackLayout;horizontal=1;startSize=40;horizontalStack=0;resizeParent=1;resizeParentMax=0;resizeLast=0;collapsible=1;marginBottom=0;whiteSpace=wrap;html=1;fillColor=#d5e8d4;strokeColor=#82b366;" parent="1" vertex="1">
          <mxGeometry x="-290" y="1099" width="160" height="92" as="geometry" />
        </mxCell>
        <mxCell id="JcLtWegY5_qB5tt3cv_g-2" value="volunteer: IVolunteer" style="text;strokeColor=#82b366;fillColor=#d5e8d4;align=left;verticalAlign=top;spacingLeft=4;spacingRight=4;overflow=hidden;rotatable=0;points=[[0,0.5],[1,0.5]];portConstraint=eastwest;whiteSpace=wrap;html=1;" parent="qyeKzw2rdfaBx60x_Buw-88" vertex="1">
          <mxGeometry y="40" width="160" height="26" as="geometry" />
        </mxCell>
        <mxCell id="qyeKzw2rdfaBx60x_Buw-91" value="- addSkill(): void" style="text;strokeColor=#82b366;fillColor=#d5e8d4;align=left;verticalAlign=top;spacingLeft=4;spacingRight=4;overflow=hidden;rotatable=0;points=[[0,0.5],[1,0.5]];portConstraint=eastwest;whiteSpace=wrap;html=1;" parent="qyeKzw2rdfaBx60x_Buw-88" vertex="1">
          <mxGeometry y="66" width="160" height="26" as="geometry" />
        </mxCell>
        <mxCell id="qyeKzw2rdfaBx60x_Buw-95" value="Driving" style="swimlane;fontStyle=1;align=center;verticalAlign=top;childLayout=stackLayout;horizontal=1;startSize=26;horizontalStack=0;resizeParent=1;resizeParentMax=0;resizeLast=0;collapsible=1;marginBottom=0;whiteSpace=wrap;html=1;fillColor=#d5e8d4;strokeColor=#82b366;" parent="1" vertex="1">
          <mxGeometry x="-450" y="1280.5" width="160" height="78" as="geometry" />
        </mxCell>
        <mxCell id="qyeKzw2rdfaBx60x_Buw-96" value="- skill: String" style="text;strokeColor=#82b366;fillColor=#d5e8d4;align=left;verticalAlign=top;spacingLeft=4;spacingRight=4;overflow=hidden;rotatable=0;points=[[0,0.5],[1,0.5]];portConstraint=eastwest;whiteSpace=wrap;html=1;" parent="qyeKzw2rdfaBx60x_Buw-95" vertex="1">
          <mxGeometry y="26" width="160" height="26" as="geometry" />
        </mxCell>
        <mxCell id="qyeKzw2rdfaBx60x_Buw-98" value="- addSkill(): void" style="text;strokeColor=#82b366;fillColor=#d5e8d4;align=left;verticalAlign=top;spacingLeft=4;spacingRight=4;overflow=hidden;rotatable=0;points=[[0,0.5],[1,0.5]];portConstraint=eastwest;whiteSpace=wrap;html=1;" parent="qyeKzw2rdfaBx60x_Buw-95" vertex="1">
          <mxGeometry y="52" width="160" height="26" as="geometry" />
        </mxCell>
        <mxCell id="qyeKzw2rdfaBx60x_Buw-99" value="Nursing" style="swimlane;fontStyle=1;align=center;verticalAlign=top;childLayout=stackLayout;horizontal=1;startSize=26;horizontalStack=0;resizeParent=1;resizeParentMax=0;resizeLast=0;collapsible=1;marginBottom=0;whiteSpace=wrap;html=1;fillColor=#d5e8d4;strokeColor=#82b366;" parent="1" vertex="1">
          <mxGeometry x="-130" y="1280.5" width="160" height="78" as="geometry" />
        </mxCell>
        <mxCell id="qyeKzw2rdfaBx60x_Buw-100" value="- skill: String" style="text;strokeColor=#82b366;fillColor=#d5e8d4;align=left;verticalAlign=top;spacingLeft=4;spacingRight=4;overflow=hidden;rotatable=0;points=[[0,0.5],[1,0.5]];portConstraint=eastwest;whiteSpace=wrap;html=1;" parent="qyeKzw2rdfaBx60x_Buw-99" vertex="1">
          <mxGeometry y="26" width="160" height="26" as="geometry" />
        </mxCell>
        <mxCell id="qyeKzw2rdfaBx60x_Buw-102" value="- addSkill(): void" style="text;strokeColor=#82b366;fillColor=#d5e8d4;align=left;verticalAlign=top;spacingLeft=4;spacingRight=4;overflow=hidden;rotatable=0;points=[[0,0.5],[1,0.5]];portConstraint=eastwest;whiteSpace=wrap;html=1;" parent="qyeKzw2rdfaBx60x_Buw-99" vertex="1">
          <mxGeometry y="52" width="160" height="26" as="geometry" />
        </mxCell>
        <mxCell id="JcLtWegY5_qB5tt3cv_g-22" style="edgeStyle=orthogonalEdgeStyle;rounded=0;orthogonalLoop=1;jettySize=auto;html=1;entryX=0.5;entryY=1;entryDx=0;entryDy=0;endArrow=block;endFill=0;startSize=6;endSize=12;fillColor=#dae8fc;strokeColor=#6c8ebf;" parent="1" source="qyeKzw2rdfaBx60x_Buw-109" target="qyeKzw2rdfaBx60x_Buw-132" edge="1">
          <mxGeometry relative="1" as="geometry">
            <Array as="points">
              <mxPoint x="960" y="1752" />
              <mxPoint x="1138" y="1752" />
            </Array>
          </mxGeometry>
        </mxCell>
        <mxCell id="qyeKzw2rdfaBx60x_Buw-109" value="BloodBank" style="swimlane;fontStyle=1;align=center;verticalAlign=top;childLayout=stackLayout;horizontal=1;startSize=26;horizontalStack=0;resizeParent=1;resizeParentMax=0;resizeLast=0;collapsible=1;marginBottom=0;whiteSpace=wrap;html=1;fillColor=#dae8fc;strokeColor=#6c8ebf;" parent="1" vertex="1">
          <mxGeometry x="880" y="1772" width="160" height="78" as="geometry" />
        </mxCell>
        <mxCell id="qyeKzw2rdfaBx60x_Buw-110" value="" style="text;strokeColor=#6c8ebf;fillColor=#dae8fc;align=left;verticalAlign=top;spacingLeft=4;spacingRight=4;overflow=hidden;rotatable=0;points=[[0,0.5],[1,0.5]];portConstraint=eastwest;whiteSpace=wrap;html=1;" parent="qyeKzw2rdfaBx60x_Buw-109" vertex="1">
          <mxGeometry y="26" width="160" height="26" as="geometry" />
        </mxCell>
        <mxCell id="qyeKzw2rdfaBx60x_Buw-112" value="- update(): bool" style="text;strokeColor=#6c8ebf;fillColor=#dae8fc;align=left;verticalAlign=top;spacingLeft=4;spacingRight=4;overflow=hidden;rotatable=0;points=[[0,0.5],[1,0.5]];portConstraint=eastwest;whiteSpace=wrap;html=1;" parent="qyeKzw2rdfaBx60x_Buw-109" vertex="1">
          <mxGeometry y="52" width="160" height="26" as="geometry" />
        </mxCell>
        <mxCell id="JcLtWegY5_qB5tt3cv_g-24" style="edgeStyle=orthogonalEdgeStyle;rounded=0;orthogonalLoop=1;jettySize=auto;html=1;entryX=0.5;entryY=1;entryDx=0;entryDy=0;endArrow=block;endFill=0;startSize=6;endSize=12;fillColor=#dae8fc;strokeColor=#6c8ebf;" parent="1" source="qyeKzw2rdfaBx60x_Buw-114" target="qyeKzw2rdfaBx60x_Buw-132" edge="1">
          <mxGeometry relative="1" as="geometry">
            <Array as="points">
              <mxPoint x="1320" y="1752" />
              <mxPoint x="1138" y="1752" />
            </Array>
          </mxGeometry>
        </mxCell>
        <mxCell id="qyeKzw2rdfaBx60x_Buw-114" value="Hospitals" style="swimlane;fontStyle=1;align=center;verticalAlign=top;childLayout=stackLayout;horizontal=1;startSize=26;horizontalStack=0;resizeParent=1;resizeParentMax=0;resizeLast=0;collapsible=1;marginBottom=0;whiteSpace=wrap;html=1;fillColor=#dae8fc;strokeColor=#6c8ebf;" parent="1" vertex="1">
          <mxGeometry x="1240" y="1772" width="160" height="78" as="geometry" />
        </mxCell>
        <mxCell id="qyeKzw2rdfaBx60x_Buw-115" value="" style="text;strokeColor=#6c8ebf;fillColor=#dae8fc;align=left;verticalAlign=top;spacingLeft=4;spacingRight=4;overflow=hidden;rotatable=0;points=[[0,0.5],[1,0.5]];portConstraint=eastwest;whiteSpace=wrap;html=1;" parent="qyeKzw2rdfaBx60x_Buw-114" vertex="1">
          <mxGeometry y="26" width="160" height="26" as="geometry" />
        </mxCell>
        <mxCell id="qyeKzw2rdfaBx60x_Buw-117" value="- update(): bool" style="text;strokeColor=#6c8ebf;fillColor=#dae8fc;align=left;verticalAlign=top;spacingLeft=4;spacingRight=4;overflow=hidden;rotatable=0;points=[[0,0.5],[1,0.5]];portConstraint=eastwest;whiteSpace=wrap;html=1;" parent="qyeKzw2rdfaBx60x_Buw-114" vertex="1">
          <mxGeometry y="52" width="160" height="26" as="geometry" />
        </mxCell>
        <mxCell id="JcLtWegY5_qB5tt3cv_g-23" style="edgeStyle=orthogonalEdgeStyle;rounded=0;orthogonalLoop=1;jettySize=auto;html=1;entryX=0.5;entryY=1;entryDx=0;entryDy=0;endArrow=block;endFill=0;startSize=6;endSize=12;fillColor=#dae8fc;strokeColor=#6c8ebf;" parent="1" source="qyeKzw2rdfaBx60x_Buw-118" target="qyeKzw2rdfaBx60x_Buw-132" edge="1">
          <mxGeometry relative="1" as="geometry" />
        </mxCell>
        <mxCell id="qyeKzw2rdfaBx60x_Buw-118" value="WaitingPatients" style="swimlane;fontStyle=1;align=center;verticalAlign=top;childLayout=stackLayout;horizontal=1;startSize=26;horizontalStack=0;resizeParent=1;resizeParentMax=0;resizeLast=0;collapsible=1;marginBottom=0;whiteSpace=wrap;html=1;fillColor=#dae8fc;strokeColor=#6c8ebf;" parent="1" vertex="1">
          <mxGeometry x="1058" y="1772" width="160" height="78" as="geometry" />
        </mxCell>
        <mxCell id="qyeKzw2rdfaBx60x_Buw-119" value="" style="text;strokeColor=#6c8ebf;fillColor=#dae8fc;align=left;verticalAlign=top;spacingLeft=4;spacingRight=4;overflow=hidden;rotatable=0;points=[[0,0.5],[1,0.5]];portConstraint=eastwest;whiteSpace=wrap;html=1;" parent="qyeKzw2rdfaBx60x_Buw-118" vertex="1">
          <mxGeometry y="26" width="160" height="26" as="geometry" />
        </mxCell>
        <mxCell id="qyeKzw2rdfaBx60x_Buw-121" value="- update(): bool" style="text;strokeColor=#6c8ebf;fillColor=#dae8fc;align=left;verticalAlign=top;spacingLeft=4;spacingRight=4;overflow=hidden;rotatable=0;points=[[0,0.5],[1,0.5]];portConstraint=eastwest;whiteSpace=wrap;html=1;" parent="qyeKzw2rdfaBx60x_Buw-118" vertex="1">
          <mxGeometry y="52" width="160" height="26" as="geometry" />
        </mxCell>
        <mxCell id="qyeKzw2rdfaBx60x_Buw-132" value="&lt;div&gt;&amp;lt;&amp;lt;Interface&amp;gt;&amp;gt;&lt;/div&gt;Beneficiary" style="swimlane;fontStyle=1;align=center;verticalAlign=top;childLayout=stackLayout;horizontal=1;startSize=40;horizontalStack=0;resizeParent=1;resizeParentMax=0;resizeLast=0;collapsible=1;marginBottom=0;whiteSpace=wrap;html=1;fillColor=#dae8fc;strokeColor=#6c8ebf;" parent="1" vertex="1">
          <mxGeometry x="1058" y="1614" width="160" height="92" as="geometry" />
        </mxCell>
        <mxCell id="qyeKzw2rdfaBx60x_Buw-133" value="" style="text;strokeColor=#6c8ebf;fillColor=#dae8fc;align=left;verticalAlign=top;spacingLeft=4;spacingRight=4;overflow=hidden;rotatable=0;points=[[0,0.5],[1,0.5]];portConstraint=eastwest;whiteSpace=wrap;html=1;" parent="qyeKzw2rdfaBx60x_Buw-132" vertex="1">
          <mxGeometry y="40" width="160" height="26" as="geometry" />
        </mxCell>
        <mxCell id="qyeKzw2rdfaBx60x_Buw-135" value="- update(): bool" style="text;strokeColor=#6c8ebf;fillColor=#dae8fc;align=left;verticalAlign=top;spacingLeft=4;spacingRight=4;overflow=hidden;rotatable=0;points=[[0,0.5],[1,0.5]];portConstraint=eastwest;whiteSpace=wrap;html=1;" parent="qyeKzw2rdfaBx60x_Buw-132" vertex="1">
          <mxGeometry y="66" width="160" height="26" as="geometry" />
        </mxCell>
        <mxCell id="XRhY1l17-4_ida-8EXZL-66" value="CommunicationFacade" style="swimlane;fontStyle=1;align=center;verticalAlign=top;childLayout=stackLayout;horizontal=1;startSize=26;horizontalStack=0;resizeParent=1;resizeParentMax=0;resizeLast=0;collapsible=1;marginBottom=0;whiteSpace=wrap;html=1;" parent="1" vertex="1">
          <mxGeometry x="-740" y="1980" width="350" height="90" as="geometry" />
        </mxCell>
        <mxCell id="XRhY1l17-4_ida-8EXZL-67" value="+ conn: Connection" style="text;strokeColor=none;fillColor=none;align=left;verticalAlign=top;spacingLeft=4;spacingRight=4;overflow=hidden;rotatable=0;points=[[0,0.5],[1,0.5]];portConstraint=eastwest;whiteSpace=wrap;html=1;" parent="XRhY1l17-4_ida-8EXZL-66" vertex="1">
          <mxGeometry y="26" width="350" height="26" as="geometry" />
        </mxCell>
        <mxCell id="XRhY1l17-4_ida-8EXZL-68" value="" style="line;strokeWidth=1;fillColor=none;align=left;verticalAlign=middle;spacingTop=-1;spacingLeft=3;spacingRight=3;rotatable=0;labelPosition=right;points=[];portConstraint=eastwest;strokeColor=inherit;" parent="XRhY1l17-4_ida-8EXZL-66" vertex="1">
          <mxGeometry y="52" width="350" height="8" as="geometry" />
        </mxCell>
        <mxCell id="XRhY1l17-4_ida-8EXZL-69" value="+ send(conn: Connection, obj: Message)" style="text;strokeColor=none;fillColor=none;align=left;verticalAlign=top;spacingLeft=4;spacingRight=4;overflow=hidden;rotatable=0;points=[[0,0.5],[1,0.5]];portConstraint=eastwest;whiteSpace=wrap;html=1;" parent="XRhY1l17-4_ida-8EXZL-66" vertex="1">
          <mxGeometry y="60" width="350" height="30" as="geometry" />
        </mxCell>
        <mxCell id="XRhY1l17-4_ida-8EXZL-75" value="&lt;p style=&quot;margin:0px;margin-top:4px;text-align:center;&quot;&gt;&lt;b&gt;Connection&lt;/b&gt;&lt;/p&gt;&lt;hr size=&quot;1&quot; style=&quot;border-style:solid;&quot;&gt;&lt;p style=&quot;margin:0px;margin-left:4px;&quot;&gt;+ target: Person&lt;/p&gt;&lt;p style=&quot;margin:0px;margin-left:4px;&quot;&gt;+ source: Person&lt;/p&gt;&lt;p style=&quot;margin:0px;margin-left:4px;&quot;&gt;&lt;br&gt;&lt;/p&gt;" style="verticalAlign=top;align=left;overflow=fill;html=1;whiteSpace=wrap;" parent="1" vertex="1">
          <mxGeometry x="-600" y="2215.88" width="190" height="69" as="geometry" />
        </mxCell>
        <mxCell id="XRhY1l17-4_ida-8EXZL-85" value="email, sms" style="swimlane;fontStyle=1;align=center;verticalAlign=top;childLayout=stackLayout;horizontal=1;startSize=26;horizontalStack=0;resizeParent=1;resizeParentMax=0;resizeLast=0;collapsible=1;marginBottom=0;whiteSpace=wrap;html=1;" parent="1" vertex="1">
          <mxGeometry x="-770" y="2095" width="350" height="90" as="geometry" />
        </mxCell>
        <mxCell id="XRhY1l17-4_ida-8EXZL-86" value="+ conn: Connection" style="text;strokeColor=none;fillColor=none;align=left;verticalAlign=top;spacingLeft=4;spacingRight=4;overflow=hidden;rotatable=0;points=[[0,0.5],[1,0.5]];portConstraint=eastwest;whiteSpace=wrap;html=1;" parent="XRhY1l17-4_ida-8EXZL-85" vertex="1">
          <mxGeometry y="26" width="350" height="26" as="geometry" />
        </mxCell>
        <mxCell id="XRhY1l17-4_ida-8EXZL-87" value="" style="line;strokeWidth=1;fillColor=none;align=left;verticalAlign=middle;spacingTop=-1;spacingLeft=3;spacingRight=3;rotatable=0;labelPosition=right;points=[];portConstraint=eastwest;strokeColor=inherit;" parent="XRhY1l17-4_ida-8EXZL-85" vertex="1">
          <mxGeometry y="52" width="350" height="8" as="geometry" />
        </mxCell>
        <mxCell id="XRhY1l17-4_ida-8EXZL-88" value="+ send(conn: Connection, obj: Message)" style="text;strokeColor=none;fillColor=none;align=left;verticalAlign=top;spacingLeft=4;spacingRight=4;overflow=hidden;rotatable=0;points=[[0,0.5],[1,0.5]];portConstraint=eastwest;whiteSpace=wrap;html=1;" parent="XRhY1l17-4_ida-8EXZL-85" vertex="1">
          <mxGeometry y="60" width="350" height="30" as="geometry" />
        </mxCell>
        <mxCell id="JcLtWegY5_qB5tt3cv_g-17" style="edgeStyle=orthogonalEdgeStyle;rounded=0;orthogonalLoop=1;jettySize=auto;html=1;entryX=0.5;entryY=1;entryDx=0;entryDy=0;dashed=1;dashPattern=8 8;" parent="1" source="XRhY1l17-4_ida-8EXZL-89" target="KDsEG0qkIhwoRO3FU9QZ-89" edge="1">
          <mxGeometry relative="1" as="geometry" />
        </mxCell>
        <mxCell id="XRhY1l17-4_ida-8EXZL-89" value="BloodStock" style="swimlane;fontStyle=1;align=center;verticalAlign=top;childLayout=stackLayout;horizontal=1;startSize=26;horizontalStack=0;resizeParent=1;resizeParentMax=0;resizeLast=0;collapsible=1;marginBottom=0;whiteSpace=wrap;html=1;fillColor=#e1d5e7;strokeColor=#9673a6;" parent="1" vertex="1">
          <mxGeometry x="590" y="1832" width="260" height="150" as="geometry" />
        </mxCell>
        <mxCell id="XRhY1l17-4_ida-8EXZL-90" value="&lt;div&gt;- beneficiaries: List&amp;lt;Beneficiary&amp;gt;&lt;/div&gt;&lt;div&gt;&lt;u&gt;- instance: BloodStock&lt;/u&gt;&lt;/div&gt;&lt;div&gt;&lt;span style=&quot;background-color: initial;&quot;&gt;- BloodAmount: Map&amp;lt;BloodTypeEnum, int&amp;gt;&lt;/span&gt;&lt;/div&gt;" style="text;strokeColor=#9673a6;fillColor=#e1d5e7;align=left;verticalAlign=top;spacingLeft=4;spacingRight=4;overflow=hidden;rotatable=0;points=[[0,0.5],[1,0.5]];portConstraint=eastwest;whiteSpace=wrap;html=1;" parent="XRhY1l17-4_ida-8EXZL-89" vertex="1">
          <mxGeometry y="26" width="260" height="54" as="geometry" />
        </mxCell>
        <mxCell id="XRhY1l17-4_ida-8EXZL-92" value="&lt;div&gt;&lt;span style=&quot;background-color: initial;&quot;&gt;+ getInstance(): BloodStock&lt;/span&gt;&lt;br&gt;&lt;/div&gt;&lt;div&gt;- addBeneficiary():&amp;nbsp;&lt;div&gt;- removeBeneficiary():&lt;/div&gt;&lt;div&gt;- notifyBeneficiaries():&lt;/div&gt;&lt;/div&gt;" style="text;strokeColor=#9673a6;fillColor=#e1d5e7;align=left;verticalAlign=top;spacingLeft=4;spacingRight=4;overflow=hidden;rotatable=0;points=[[0,0.5],[1,0.5]];portConstraint=eastwest;whiteSpace=wrap;html=1;" parent="XRhY1l17-4_ida-8EXZL-89" vertex="1">
          <mxGeometry y="80" width="260" height="70" as="geometry" />
        </mxCell>
        <mxCell id="JcLtWegY5_qB5tt3cv_g-16" style="edgeStyle=orthogonalEdgeStyle;rounded=0;orthogonalLoop=1;jettySize=auto;html=1;entryX=1.004;entryY=0.429;entryDx=0;entryDy=0;entryPerimeter=0;endArrow=open;endFill=0;fillColor=#e1d5e7;strokeColor=#9673a6;" parent="XRhY1l17-4_ida-8EXZL-89" source="XRhY1l17-4_ida-8EXZL-89" target="XRhY1l17-4_ida-8EXZL-90" edge="1">
          <mxGeometry relative="1" as="geometry">
            <mxPoint x="250" y="147" as="targetPoint" />
            <Array as="points">
              <mxPoint x="290" y="106" />
              <mxPoint x="290" y="49" />
            </Array>
          </mxGeometry>
        </mxCell>
        <mxCell id="KDsEG0qkIhwoRO3FU9QZ-1" value="MoneyDonationDetails" style="swimlane;fontStyle=1;align=center;verticalAlign=top;childLayout=stackLayout;horizontal=1;startSize=26;horizontalStack=0;resizeParent=1;resizeParentMax=0;resizeLast=0;collapsible=1;marginBottom=0;whiteSpace=wrap;html=1;" parent="1" vertex="1">
          <mxGeometry x="1800" y="20" width="160" height="114" as="geometry" />
        </mxCell>
        <mxCell id="KDsEG0qkIhwoRO3FU9QZ-2" value="- items: lmap&amp;lt;qty:Item&amp;gt;&lt;div&gt;&lt;div&gt;- datetime: DateTime&lt;/div&gt;&lt;div&gt;- amout: float&lt;/div&gt;&lt;/div&gt;" style="text;strokeColor=none;fillColor=none;align=left;verticalAlign=top;spacingLeft=4;spacingRight=4;overflow=hidden;rotatable=0;points=[[0,0.5],[1,0.5]];portConstraint=eastwest;whiteSpace=wrap;html=1;" parent="KDsEG0qkIhwoRO3FU9QZ-1" vertex="1">
          <mxGeometry y="26" width="160" height="54" as="geometry" />
        </mxCell>
        <mxCell id="KDsEG0qkIhwoRO3FU9QZ-3" value="" style="line;strokeWidth=1;fillColor=none;align=left;verticalAlign=middle;spacingTop=-1;spacingLeft=3;spacingRight=3;rotatable=0;labelPosition=right;points=[];portConstraint=eastwest;strokeColor=inherit;" parent="KDsEG0qkIhwoRO3FU9QZ-1" vertex="1">
          <mxGeometry y="80" width="160" height="8" as="geometry" />
        </mxCell>
        <mxCell id="KDsEG0qkIhwoRO3FU9QZ-4" value="- calc_amount(): float" style="text;strokeColor=none;fillColor=none;align=left;verticalAlign=top;spacingLeft=4;spacingRight=4;overflow=hidden;rotatable=0;points=[[0,0.5],[1,0.5]];portConstraint=eastwest;whiteSpace=wrap;html=1;" parent="KDsEG0qkIhwoRO3FU9QZ-1" vertex="1">
          <mxGeometry y="88" width="160" height="26" as="geometry" />
        </mxCell>
        <mxCell id="KDsEG0qkIhwoRO3FU9QZ-6" value="Item" style="swimlane;fontStyle=1;align=center;verticalAlign=top;childLayout=stackLayout;horizontal=1;startSize=26;horizontalStack=0;resizeParent=1;resizeParentMax=0;resizeLast=0;collapsible=1;marginBottom=0;whiteSpace=wrap;html=1;" parent="1" vertex="1">
          <mxGeometry x="1985" y="150" width="160" height="68" as="geometry" />
        </mxCell>
        <mxCell id="KDsEG0qkIhwoRO3FU9QZ-7" value="- name: String&lt;div&gt;- price: float&lt;/div&gt;&lt;div&gt;&lt;br&gt;&lt;/div&gt;" style="text;strokeColor=none;fillColor=none;align=left;verticalAlign=top;spacingLeft=4;spacingRight=4;overflow=hidden;rotatable=0;points=[[0,0.5],[1,0.5]];portConstraint=eastwest;whiteSpace=wrap;html=1;" parent="KDsEG0qkIhwoRO3FU9QZ-6" vertex="1">
          <mxGeometry y="26" width="160" height="34" as="geometry" />
        </mxCell>
        <mxCell id="KDsEG0qkIhwoRO3FU9QZ-8" value="" style="line;strokeWidth=1;fillColor=none;align=left;verticalAlign=middle;spacingTop=-1;spacingLeft=3;spacingRight=3;rotatable=0;labelPosition=right;points=[];portConstraint=eastwest;strokeColor=inherit;" parent="KDsEG0qkIhwoRO3FU9QZ-6" vertex="1">
          <mxGeometry y="60" width="160" height="8" as="geometry" />
        </mxCell>
        <mxCell id="JcLtWegY5_qB5tt3cv_g-14" style="edgeStyle=orthogonalEdgeStyle;rounded=0;orthogonalLoop=1;jettySize=auto;html=1;startArrow=diamondThin;startFill=0;startSize=10;endArrow=open;endFill=0;" parent="1" source="KDsEG0qkIhwoRO3FU9QZ-23" target="qyeKzw2rdfaBx60x_Buw-5" edge="1">
          <mxGeometry relative="1" as="geometry">
            <Array as="points">
              <mxPoint x="1090" y="1034" />
              <mxPoint x="1500" y="1034" />
            </Array>
          </mxGeometry>
        </mxCell>
        <mxCell id="KDsEG0qkIhwoRO3FU9QZ-23" value="MoneyDonation" style="swimlane;fontStyle=1;align=center;verticalAlign=top;childLayout=stackLayout;horizontal=1;startSize=26;horizontalStack=0;resizeParent=1;resizeParentMax=0;resizeLast=0;collapsible=1;marginBottom=0;whiteSpace=wrap;html=1;" parent="1" vertex="1">
          <mxGeometry x="920" y="898" width="360" height="100" as="geometry" />
        </mxCell>
        <mxCell id="KDsEG0qkIhwoRO3FU9QZ-24" value="- donation_method: Donation_Method&lt;div&gt;- money_donation_details: Money_Donation_Details&lt;/div&gt;&lt;div&gt;&lt;br&gt;&lt;/div&gt;" style="text;strokeColor=none;fillColor=none;align=left;verticalAlign=top;spacingLeft=4;spacingRight=4;overflow=hidden;rotatable=0;points=[[0,0.5],[1,0.5]];portConstraint=eastwest;whiteSpace=wrap;html=1;" parent="KDsEG0qkIhwoRO3FU9QZ-23" vertex="1">
          <mxGeometry y="26" width="360" height="40" as="geometry" />
        </mxCell>
        <mxCell id="KDsEG0qkIhwoRO3FU9QZ-25" value="" style="line;strokeWidth=1;fillColor=none;align=left;verticalAlign=middle;spacingTop=-1;spacingLeft=3;spacingRight=3;rotatable=0;labelPosition=right;points=[];portConstraint=eastwest;strokeColor=inherit;" parent="KDsEG0qkIhwoRO3FU9QZ-23" vertex="1">
          <mxGeometry y="66" width="360" height="8" as="geometry" />
        </mxCell>
        <mxCell id="KDsEG0qkIhwoRO3FU9QZ-26" value="- get_receipt(): string" style="text;strokeColor=none;fillColor=none;align=left;verticalAlign=top;spacingLeft=4;spacingRight=4;overflow=hidden;rotatable=0;points=[[0,0.5],[1,0.5]];portConstraint=eastwest;whiteSpace=wrap;html=1;" parent="KDsEG0qkIhwoRO3FU9QZ-23" vertex="1">
          <mxGeometry y="74" width="360" height="26" as="geometry" />
        </mxCell>
        <mxCell id="KDsEG0qkIhwoRO3FU9QZ-38" value="" style="endArrow=diamondThin;html=1;endSize=12;startArrow=open;startSize=12;startFill=0;edgeStyle=orthogonalEdgeStyle;rounded=0;exitX=0.544;exitY=-0.018;exitDx=0;exitDy=0;exitPerimeter=0;entryX=0.999;entryY=0.611;entryDx=0;entryDy=0;entryPerimeter=0;endFill=0;" parent="1" source="KDsEG0qkIhwoRO3FU9QZ-6" target="KDsEG0qkIhwoRO3FU9QZ-2" edge="1">
          <mxGeometry x="0.0044" relative="1" as="geometry">
            <mxPoint x="1955" y="368" as="sourcePoint" />
            <mxPoint x="2075" y="378" as="targetPoint" />
            <mxPoint as="offset" />
          </mxGeometry>
        </mxCell>
        <mxCell id="JcLtWegY5_qB5tt3cv_g-34" style="edgeStyle=orthogonalEdgeStyle;rounded=0;orthogonalLoop=1;jettySize=auto;html=1;entryX=0;entryY=0.5;entryDx=0;entryDy=0;endArrow=diamondThin;endFill=0;startArrow=none;startFill=0;startSize=12;endSize=12;fillColor=#ffe6cc;strokeColor=#d79b00;" parent="1" source="KDsEG0qkIhwoRO3FU9QZ-47" target="KDsEG0qkIhwoRO3FU9QZ-46" edge="1">
          <mxGeometry relative="1" as="geometry" />
        </mxCell>
        <mxCell id="KDsEG0qkIhwoRO3FU9QZ-47" value="&lt;div&gt;&amp;lt;&amp;lt;Interface&amp;gt;&amp;gt;&lt;/div&gt;PaymentMethod" style="swimlane;fontStyle=1;align=center;verticalAlign=top;childLayout=stackLayout;horizontal=1;startSize=44;horizontalStack=0;resizeParent=1;resizeParentMax=0;resizeLast=0;collapsible=1;marginBottom=0;whiteSpace=wrap;html=1;fillColor=#ffe6cc;strokeColor=#d79b00;" parent="1" vertex="1">
          <mxGeometry x="890" y="1113" width="160" height="70" as="geometry" />
        </mxCell>
        <mxCell id="KDsEG0qkIhwoRO3FU9QZ-50" value="- processPayment(): bool" style="text;strokeColor=#d79b00;fillColor=#ffe6cc;align=left;verticalAlign=top;spacingLeft=4;spacingRight=4;overflow=hidden;rotatable=0;points=[[0,0.5],[1,0.5]];portConstraint=eastwest;whiteSpace=wrap;html=1;" parent="KDsEG0qkIhwoRO3FU9QZ-47" vertex="1">
          <mxGeometry y="44" width="160" height="26" as="geometry" />
        </mxCell>
        <mxCell id="KDsEG0qkIhwoRO3FU9QZ-55" value="&amp;lt;&amp;lt;Abstract&amp;gt;&amp;gt;&lt;div&gt;BankPayment&lt;/div&gt;" style="swimlane;fontStyle=1;align=center;verticalAlign=top;childLayout=stackLayout;horizontal=1;startSize=47;horizontalStack=0;resizeParent=1;resizeParentMax=0;resizeLast=0;collapsible=1;marginBottom=0;whiteSpace=wrap;html=1;fillColor=#ffe6cc;strokeColor=#d79b00;" parent="1" vertex="1">
          <mxGeometry x="1050" y="1274" width="160" height="118" as="geometry" />
        </mxCell>
        <mxCell id="KDsEG0qkIhwoRO3FU9QZ-56" value="- card_number: String&lt;div&gt;- cvv: int&lt;/div&gt;&lt;div&gt;- expiry_date: String&lt;/div&gt;" style="text;strokeColor=#d79b00;fillColor=#ffe6cc;align=left;verticalAlign=top;spacingLeft=4;spacingRight=4;overflow=hidden;rotatable=0;points=[[0,0.5],[1,0.5]];portConstraint=eastwest;whiteSpace=wrap;html=1;" parent="KDsEG0qkIhwoRO3FU9QZ-55" vertex="1">
          <mxGeometry y="47" width="160" height="63" as="geometry" />
        </mxCell>
        <mxCell id="KDsEG0qkIhwoRO3FU9QZ-57" value="" style="line;strokeWidth=1;fillColor=#ffe6cc;align=left;verticalAlign=middle;spacingTop=-1;spacingLeft=3;spacingRight=3;rotatable=0;labelPosition=right;points=[];portConstraint=eastwest;strokeColor=#d79b00;" parent="KDsEG0qkIhwoRO3FU9QZ-55" vertex="1">
          <mxGeometry y="110" width="160" height="8" as="geometry" />
        </mxCell>
        <mxCell id="JcLtWegY5_qB5tt3cv_g-35" style="edgeStyle=orthogonalEdgeStyle;rounded=0;orthogonalLoop=1;jettySize=auto;html=1;entryX=0.5;entryY=1;entryDx=0;entryDy=0;endArrow=block;endFill=0;fillColor=#ffe6cc;strokeColor=#d79b00;" parent="1" source="KDsEG0qkIhwoRO3FU9QZ-64" target="KDsEG0qkIhwoRO3FU9QZ-55" edge="1">
          <mxGeometry relative="1" as="geometry" />
        </mxCell>
        <mxCell id="KDsEG0qkIhwoRO3FU9QZ-64" value="Credit" style="swimlane;fontStyle=1;align=center;verticalAlign=top;childLayout=stackLayout;horizontal=1;startSize=26;horizontalStack=0;resizeParent=1;resizeParentMax=0;resizeLast=0;collapsible=1;marginBottom=0;whiteSpace=wrap;html=1;fillColor=#ffe6cc;strokeColor=#d79b00;" parent="1" vertex="1">
          <mxGeometry x="1150" y="1444" width="160" height="60" as="geometry" />
        </mxCell>
        <mxCell id="KDsEG0qkIhwoRO3FU9QZ-66" value="" style="line;strokeWidth=1;fillColor=#ffe6cc;align=left;verticalAlign=middle;spacingTop=-1;spacingLeft=3;spacingRight=3;rotatable=0;labelPosition=right;points=[];portConstraint=eastwest;strokeColor=#d79b00;" parent="KDsEG0qkIhwoRO3FU9QZ-64" vertex="1">
          <mxGeometry y="26" width="160" height="8" as="geometry" />
        </mxCell>
        <mxCell id="KDsEG0qkIhwoRO3FU9QZ-67" value="process_payment(): bool" style="text;strokeColor=#d79b00;fillColor=#ffe6cc;align=left;verticalAlign=top;spacingLeft=4;spacingRight=4;overflow=hidden;rotatable=0;points=[[0,0.5],[1,0.5]];portConstraint=eastwest;whiteSpace=wrap;html=1;" parent="KDsEG0qkIhwoRO3FU9QZ-64" vertex="1">
          <mxGeometry y="34" width="160" height="26" as="geometry" />
        </mxCell>
        <mxCell id="KDsEG0qkIhwoRO3FU9QZ-69" value="Debit" style="swimlane;fontStyle=1;align=center;verticalAlign=top;childLayout=stackLayout;horizontal=1;startSize=26;horizontalStack=0;resizeParent=1;resizeParentMax=0;resizeLast=0;collapsible=1;marginBottom=0;whiteSpace=wrap;html=1;fillColor=#ffe6cc;strokeColor=#d79b00;" parent="1" vertex="1">
          <mxGeometry x="950" y="1444" width="160" height="60" as="geometry" />
        </mxCell>
        <mxCell id="KDsEG0qkIhwoRO3FU9QZ-71" value="" style="line;strokeWidth=1;fillColor=#ffe6cc;align=left;verticalAlign=middle;spacingTop=-1;spacingLeft=3;spacingRight=3;rotatable=0;labelPosition=right;points=[];portConstraint=eastwest;strokeColor=#d79b00;" parent="KDsEG0qkIhwoRO3FU9QZ-69" vertex="1">
          <mxGeometry y="26" width="160" height="8" as="geometry" />
        </mxCell>
        <mxCell id="KDsEG0qkIhwoRO3FU9QZ-72" value="process_payment(): bool" style="text;strokeColor=#d79b00;fillColor=#ffe6cc;align=left;verticalAlign=top;spacingLeft=4;spacingRight=4;overflow=hidden;rotatable=0;points=[[0,0.5],[1,0.5]];portConstraint=eastwest;whiteSpace=wrap;html=1;" parent="KDsEG0qkIhwoRO3FU9QZ-69" vertex="1">
          <mxGeometry y="34" width="160" height="26" as="geometry" />
        </mxCell>
        <mxCell id="KDsEG0qkIhwoRO3FU9QZ-73" style="edgeStyle=orthogonalEdgeStyle;rounded=0;orthogonalLoop=1;jettySize=auto;html=1;entryX=0.5;entryY=1;entryDx=0;entryDy=0;endArrow=block;endFill=0;fillColor=#ffe6cc;strokeColor=#d79b00;" parent="1" source="KDsEG0qkIhwoRO3FU9QZ-69" target="KDsEG0qkIhwoRO3FU9QZ-55" edge="1">
          <mxGeometry relative="1" as="geometry">
            <mxPoint x="1080" y="1394" as="targetPoint" />
          </mxGeometry>
        </mxCell>
        <mxCell id="KDsEG0qkIhwoRO3FU9QZ-74" value="&amp;lt;&amp;lt;Abstract&amp;gt;&amp;gt;&lt;div&gt;OnlinePayment&lt;/div&gt;" style="swimlane;fontStyle=1;align=center;verticalAlign=top;childLayout=stackLayout;horizontal=1;startSize=50;horizontalStack=0;resizeParent=1;resizeParentMax=0;resizeLast=0;collapsible=1;marginBottom=0;whiteSpace=wrap;html=1;fillColor=#ffe6cc;strokeColor=#d79b00;" parent="1" vertex="1">
          <mxGeometry x="660" y="1274" width="160" height="118" as="geometry" />
        </mxCell>
        <mxCell id="KDsEG0qkIhwoRO3FU9QZ-75" value="- email: String&lt;div&gt;- password: String&lt;/div&gt;" style="text;strokeColor=#d79b00;fillColor=#ffe6cc;align=left;verticalAlign=top;spacingLeft=4;spacingRight=4;overflow=hidden;rotatable=0;points=[[0,0.5],[1,0.5]];portConstraint=eastwest;whiteSpace=wrap;html=1;" parent="KDsEG0qkIhwoRO3FU9QZ-74" vertex="1">
          <mxGeometry y="50" width="160" height="60" as="geometry" />
        </mxCell>
        <mxCell id="KDsEG0qkIhwoRO3FU9QZ-76" value="" style="line;strokeWidth=1;fillColor=#ffe6cc;align=left;verticalAlign=middle;spacingTop=-1;spacingLeft=3;spacingRight=3;rotatable=0;labelPosition=right;points=[];portConstraint=eastwest;strokeColor=#d79b00;" parent="KDsEG0qkIhwoRO3FU9QZ-74" vertex="1">
          <mxGeometry y="110" width="160" height="8" as="geometry" />
        </mxCell>
        <mxCell id="KDsEG0qkIhwoRO3FU9QZ-88" style="edgeStyle=orthogonalEdgeStyle;rounded=0;orthogonalLoop=1;jettySize=auto;html=1;entryX=0.5;entryY=1;entryDx=0;entryDy=0;endArrow=block;endFill=0;fillColor=#ffe6cc;strokeColor=#d79b00;" parent="1" source="KDsEG0qkIhwoRO3FU9QZ-79" target="KDsEG0qkIhwoRO3FU9QZ-74" edge="1">
          <mxGeometry relative="1" as="geometry">
            <mxPoint x="720" y="1394" as="targetPoint" />
          </mxGeometry>
        </mxCell>
        <mxCell id="KDsEG0qkIhwoRO3FU9QZ-79" value="PayPal" style="swimlane;fontStyle=1;align=center;verticalAlign=top;childLayout=stackLayout;horizontal=1;startSize=26;horizontalStack=0;resizeParent=1;resizeParentMax=0;resizeLast=0;collapsible=1;marginBottom=0;whiteSpace=wrap;html=1;fillColor=#ffe6cc;strokeColor=#d79b00;" parent="1" vertex="1">
          <mxGeometry x="570" y="1444" width="160" height="60" as="geometry" />
        </mxCell>
        <mxCell id="KDsEG0qkIhwoRO3FU9QZ-81" value="" style="line;strokeWidth=1;fillColor=#ffe6cc;align=left;verticalAlign=middle;spacingTop=-1;spacingLeft=3;spacingRight=3;rotatable=0;labelPosition=right;points=[];portConstraint=eastwest;strokeColor=#d79b00;" parent="KDsEG0qkIhwoRO3FU9QZ-79" vertex="1">
          <mxGeometry y="26" width="160" height="8" as="geometry" />
        </mxCell>
        <mxCell id="KDsEG0qkIhwoRO3FU9QZ-82" value="- process_payment(): bool" style="text;strokeColor=#d79b00;fillColor=#ffe6cc;align=left;verticalAlign=top;spacingLeft=4;spacingRight=4;overflow=hidden;rotatable=0;points=[[0,0.5],[1,0.5]];portConstraint=eastwest;whiteSpace=wrap;html=1;" parent="KDsEG0qkIhwoRO3FU9QZ-79" vertex="1">
          <mxGeometry y="34" width="160" height="26" as="geometry" />
        </mxCell>
        <mxCell id="KDsEG0qkIhwoRO3FU9QZ-87" style="edgeStyle=orthogonalEdgeStyle;rounded=0;orthogonalLoop=1;jettySize=auto;html=1;exitX=0.5;exitY=0;exitDx=0;exitDy=0;entryX=0.5;entryY=1;entryDx=0;entryDy=0;endArrow=block;endFill=0;fillColor=#ffe6cc;strokeColor=#d79b00;" parent="1" source="KDsEG0qkIhwoRO3FU9QZ-83" target="KDsEG0qkIhwoRO3FU9QZ-74" edge="1">
          <mxGeometry relative="1" as="geometry">
            <mxPoint x="770" y="1394" as="targetPoint" />
          </mxGeometry>
        </mxCell>
        <mxCell id="KDsEG0qkIhwoRO3FU9QZ-83" value="BnsPay" style="swimlane;fontStyle=1;align=center;verticalAlign=top;childLayout=stackLayout;horizontal=1;startSize=26;horizontalStack=0;resizeParent=1;resizeParentMax=0;resizeLast=0;collapsible=1;marginBottom=0;whiteSpace=wrap;html=1;fillColor=#ffe6cc;strokeColor=#d79b00;" parent="1" vertex="1">
          <mxGeometry x="760" y="1444" width="160" height="60" as="geometry" />
        </mxCell>
        <mxCell id="KDsEG0qkIhwoRO3FU9QZ-85" value="" style="line;strokeWidth=1;fillColor=#ffe6cc;align=left;verticalAlign=middle;spacingTop=-1;spacingLeft=3;spacingRight=3;rotatable=0;labelPosition=right;points=[];portConstraint=eastwest;strokeColor=#d79b00;" parent="KDsEG0qkIhwoRO3FU9QZ-83" vertex="1">
          <mxGeometry y="26" width="160" height="8" as="geometry" />
        </mxCell>
        <mxCell id="KDsEG0qkIhwoRO3FU9QZ-86" value="- process_payment(): bool" style="text;strokeColor=#d79b00;fillColor=#ffe6cc;align=left;verticalAlign=top;spacingLeft=4;spacingRight=4;overflow=hidden;rotatable=0;points=[[0,0.5],[1,0.5]];portConstraint=eastwest;whiteSpace=wrap;html=1;" parent="KDsEG0qkIhwoRO3FU9QZ-83" vertex="1">
          <mxGeometry y="34" width="160" height="26" as="geometry" />
        </mxCell>
        <mxCell id="JcLtWegY5_qB5tt3cv_g-18" style="edgeStyle=orthogonalEdgeStyle;rounded=0;orthogonalLoop=1;jettySize=auto;html=1;strokeColor=#6c8ebf;startArrow=diamondThin;startFill=0;endArrow=open;endFill=0;entryX=0;entryY=0.5;entryDx=0;entryDy=0;startSize=12;fillColor=#dae8fc;" parent="1" source="KDsEG0qkIhwoRO3FU9QZ-89" target="qyeKzw2rdfaBx60x_Buw-132" edge="1">
          <mxGeometry relative="1" as="geometry">
            <mxPoint x="1060" y="1660" as="targetPoint" />
          </mxGeometry>
        </mxCell>
        <mxCell id="KDsEG0qkIhwoRO3FU9QZ-89" value="&amp;lt;&amp;lt;Interface&amp;gt;&amp;gt;&lt;div&gt;IBloodStock&lt;/div&gt;" style="swimlane;fontStyle=1;align=center;verticalAlign=top;childLayout=stackLayout;horizontal=1;startSize=46;horizontalStack=0;resizeParent=1;resizeParentMax=0;resizeLast=0;collapsible=1;marginBottom=0;whiteSpace=wrap;html=1;fillColor=#dae8fc;strokeColor=#6c8ebf;" parent="1" vertex="1">
          <mxGeometry x="640" y="1610" width="160" height="100" as="geometry" />
        </mxCell>
        <mxCell id="KDsEG0qkIhwoRO3FU9QZ-92" value="- addBeneficiary():&amp;nbsp;&lt;div&gt;- removeBeneficiary():&lt;/div&gt;&lt;div&gt;- notifyBeneficiaries():&lt;/div&gt;" style="text;strokeColor=#6c8ebf;fillColor=#dae8fc;align=left;verticalAlign=top;spacingLeft=4;spacingRight=4;overflow=hidden;rotatable=0;points=[[0,0.5],[1,0.5]];portConstraint=eastwest;whiteSpace=wrap;html=1;" parent="KDsEG0qkIhwoRO3FU9QZ-89" vertex="1">
          <mxGeometry y="46" width="160" height="54" as="geometry" />
        </mxCell>
        <mxCell id="KDsEG0qkIhwoRO3FU9QZ-101" value="&lt;div&gt;&amp;lt;&amp;lt;Enumuration&amp;gt;&amp;gt;&lt;/div&gt;BloodTypeEnum" style="swimlane;fontStyle=0;childLayout=stackLayout;horizontal=1;startSize=40;fillColor=#dae8fc;horizontalStack=0;resizeParent=1;resizeParentMax=0;resizeLast=0;collapsible=1;marginBottom=0;whiteSpace=wrap;html=1;strokeColor=#6c8ebf;" parent="1" vertex="1">
          <mxGeometry x="330" y="1812" width="140" height="248" as="geometry" />
        </mxCell>
        <mxCell id="KDsEG0qkIhwoRO3FU9QZ-102" value="AB+" style="text;strokeColor=#6c8ebf;fillColor=#dae8fc;align=left;verticalAlign=top;spacingLeft=4;spacingRight=4;overflow=hidden;rotatable=0;points=[[0,0.5],[1,0.5]];portConstraint=eastwest;whiteSpace=wrap;html=1;" parent="KDsEG0qkIhwoRO3FU9QZ-101" vertex="1">
          <mxGeometry y="40" width="140" height="26" as="geometry" />
        </mxCell>
        <mxCell id="KDsEG0qkIhwoRO3FU9QZ-103" value="AB-" style="text;strokeColor=#6c8ebf;fillColor=#dae8fc;align=left;verticalAlign=top;spacingLeft=4;spacingRight=4;overflow=hidden;rotatable=0;points=[[0,0.5],[1,0.5]];portConstraint=eastwest;whiteSpace=wrap;html=1;" parent="KDsEG0qkIhwoRO3FU9QZ-101" vertex="1">
          <mxGeometry y="66" width="140" height="26" as="geometry" />
        </mxCell>
        <mxCell id="KDsEG0qkIhwoRO3FU9QZ-106" value="A+" style="text;strokeColor=#6c8ebf;fillColor=#dae8fc;align=left;verticalAlign=top;spacingLeft=4;spacingRight=4;overflow=hidden;rotatable=0;points=[[0,0.5],[1,0.5]];portConstraint=eastwest;whiteSpace=wrap;html=1;" parent="KDsEG0qkIhwoRO3FU9QZ-101" vertex="1">
          <mxGeometry y="92" width="140" height="26" as="geometry" />
        </mxCell>
        <mxCell id="KDsEG0qkIhwoRO3FU9QZ-104" value="A-" style="text;strokeColor=#6c8ebf;fillColor=#dae8fc;align=left;verticalAlign=top;spacingLeft=4;spacingRight=4;overflow=hidden;rotatable=0;points=[[0,0.5],[1,0.5]];portConstraint=eastwest;whiteSpace=wrap;html=1;" parent="KDsEG0qkIhwoRO3FU9QZ-101" vertex="1">
          <mxGeometry y="118" width="140" height="26" as="geometry" />
        </mxCell>
        <mxCell id="KDsEG0qkIhwoRO3FU9QZ-108" value="B+" style="text;strokeColor=#6c8ebf;fillColor=#dae8fc;align=left;verticalAlign=top;spacingLeft=4;spacingRight=4;overflow=hidden;rotatable=0;points=[[0,0.5],[1,0.5]];portConstraint=eastwest;whiteSpace=wrap;html=1;" parent="KDsEG0qkIhwoRO3FU9QZ-101" vertex="1">
          <mxGeometry y="144" width="140" height="26" as="geometry" />
        </mxCell>
        <mxCell id="KDsEG0qkIhwoRO3FU9QZ-107" value="B-" style="text;strokeColor=#6c8ebf;fillColor=#dae8fc;align=left;verticalAlign=top;spacingLeft=4;spacingRight=4;overflow=hidden;rotatable=0;points=[[0,0.5],[1,0.5]];portConstraint=eastwest;whiteSpace=wrap;html=1;" parent="KDsEG0qkIhwoRO3FU9QZ-101" vertex="1">
          <mxGeometry y="170" width="140" height="26" as="geometry" />
        </mxCell>
        <mxCell id="KDsEG0qkIhwoRO3FU9QZ-109" value="O+" style="text;strokeColor=#6c8ebf;fillColor=#dae8fc;align=left;verticalAlign=top;spacingLeft=4;spacingRight=4;overflow=hidden;rotatable=0;points=[[0,0.5],[1,0.5]];portConstraint=eastwest;whiteSpace=wrap;html=1;" parent="KDsEG0qkIhwoRO3FU9QZ-101" vertex="1">
          <mxGeometry y="196" width="140" height="26" as="geometry" />
        </mxCell>
        <mxCell id="KDsEG0qkIhwoRO3FU9QZ-105" value="&lt;div&gt;O-&lt;/div&gt;" style="text;strokeColor=#6c8ebf;fillColor=#dae8fc;align=left;verticalAlign=top;spacingLeft=4;spacingRight=4;overflow=hidden;rotatable=0;points=[[0,0.5],[1,0.5]];portConstraint=eastwest;whiteSpace=wrap;html=1;" parent="KDsEG0qkIhwoRO3FU9QZ-101" vertex="1">
          <mxGeometry y="222" width="140" height="26" as="geometry" />
        </mxCell>
        <mxCell id="KDsEG0qkIhwoRO3FU9QZ-110" style="edgeStyle=orthogonalEdgeStyle;rounded=0;orthogonalLoop=1;jettySize=auto;html=1;entryX=1.012;entryY=0.777;entryDx=0;entryDy=0;entryPerimeter=0;fillColor=#dae8fc;strokeColor=#6c8ebf;exitX=0.001;exitY=0.743;exitDx=0;exitDy=0;exitPerimeter=0;" parent="1" source="XRhY1l17-4_ida-8EXZL-90" target="KDsEG0qkIhwoRO3FU9QZ-103" edge="1">
          <mxGeometry relative="1" as="geometry" />
        </mxCell>
        <mxCell id="KDsEG0qkIhwoRO3FU9QZ-112" style="edgeStyle=orthogonalEdgeStyle;rounded=0;orthogonalLoop=1;jettySize=auto;html=1;entryX=0.001;entryY=0.086;entryDx=0;entryDy=0;entryPerimeter=0;" parent="1" source="oy_JtRO4Ry1S7o-juA2U-57" target="XRhY1l17-4_ida-8EXZL-90" edge="1">
          <mxGeometry relative="1" as="geometry">
            <Array as="points">
              <mxPoint x="500" y="1863" />
            </Array>
          </mxGeometry>
        </mxCell>
        <mxCell id="KDsEG0qkIhwoRO3FU9QZ-123" style="edgeStyle=orthogonalEdgeStyle;rounded=0;orthogonalLoop=1;jettySize=auto;html=1;entryX=1.022;entryY=0.131;entryDx=0;entryDy=0;entryPerimeter=0;fillColor=#f8cecc;strokeColor=#b85450;endArrow=block;endFill=0;" parent="1" source="qyeKzw2rdfaBx60x_Buw-55" target="qyeKzw2rdfaBx60x_Buw-46" edge="1">
          <mxGeometry relative="1" as="geometry" />
        </mxCell>
        <mxCell id="KDsEG0qkIhwoRO3FU9QZ-124" style="edgeStyle=orthogonalEdgeStyle;rounded=0;orthogonalLoop=1;jettySize=auto;html=1;entryX=0.497;entryY=1.038;entryDx=0;entryDy=0;entryPerimeter=0;fillColor=#f8cecc;strokeColor=#b85450;endArrow=block;endFill=0;" parent="1" source="qyeKzw2rdfaBx60x_Buw-47" target="qyeKzw2rdfaBx60x_Buw-46" edge="1">
          <mxGeometry relative="1" as="geometry" />
        </mxCell>
        <mxCell id="qyeKzw2rdfaBx60x_Buw-46" value="+ getDetails(): String" style="text;strokeColor=#b85450;fillColor=#f8cecc;align=left;verticalAlign=top;spacingLeft=4;spacingRight=4;overflow=hidden;rotatable=0;points=[[0,0.5],[1,0.5]];portConstraint=eastwest;whiteSpace=wrap;html=1;" parent="1" vertex="1">
          <mxGeometry x="-520" y="386" width="160" height="26" as="geometry" />
        </mxCell>
        <mxCell id="JcLtWegY5_qB5tt3cv_g-8" style="edgeStyle=orthogonalEdgeStyle;rounded=0;orthogonalLoop=1;jettySize=auto;html=1;endArrow=block;endFill=0;fillColor=#d5e8d4;strokeColor=#82b366;" parent="1" source="qyeKzw2rdfaBx60x_Buw-99" target="qyeKzw2rdfaBx60x_Buw-91" edge="1">
          <mxGeometry relative="1" as="geometry">
            <Array as="points">
              <mxPoint x="-50" y="1236" />
              <mxPoint x="-210" y="1236" />
            </Array>
          </mxGeometry>
        </mxCell>
        <mxCell id="JcLtWegY5_qB5tt3cv_g-9" style="edgeStyle=orthogonalEdgeStyle;rounded=0;orthogonalLoop=1;jettySize=auto;html=1;endArrow=block;endFill=0;fillColor=#d5e8d4;strokeColor=#82b366;" parent="1" source="qyeKzw2rdfaBx60x_Buw-95" edge="1">
          <mxGeometry relative="1" as="geometry">
            <mxPoint x="-210" y="1191" as="targetPoint" />
            <Array as="points">
              <mxPoint x="-370" y="1236" />
              <mxPoint x="-210" y="1236" />
              <mxPoint x="-210" y="1191" />
            </Array>
          </mxGeometry>
        </mxCell>
        <mxCell id="JcLtWegY5_qB5tt3cv_g-29" value="&lt;h1&gt;&lt;font color=&quot;#7ea6e0&quot;&gt;Observer&lt;/font&gt;&lt;/h1&gt;" style="text;html=1;align=center;verticalAlign=middle;resizable=0;points=[];autosize=1;strokeColor=none;fillColor=none;" parent="1" vertex="1">
          <mxGeometry x="335" y="1664" width="130" height="70" as="geometry" />
        </mxCell>
        <mxCell id="JcLtWegY5_qB5tt3cv_g-31" value="&lt;h1&gt;&lt;font color=&quot;#a680b8&quot;&gt;Singleton&lt;/font&gt;&lt;/h1&gt;" style="text;html=1;align=center;verticalAlign=middle;resizable=0;points=[];autosize=1;strokeColor=none;fillColor=none;" parent="1" vertex="1">
          <mxGeometry x="335" y="1712" width="130" height="70" as="geometry" />
        </mxCell>
        <mxCell id="JcLtWegY5_qB5tt3cv_g-32" value="&lt;h1&gt;&lt;font color=&quot;#97d077&quot;&gt;Decorator&lt;/font&gt;&lt;/h1&gt;" style="text;html=1;align=center;verticalAlign=middle;resizable=0;points=[];autosize=1;strokeColor=none;fillColor=none;" parent="1" vertex="1">
          <mxGeometry x="-130" y="1029" width="140" height="70" as="geometry" />
        </mxCell>
        <mxCell id="JcLtWegY5_qB5tt3cv_g-33" value="&lt;h1&gt;&lt;font color=&quot;#ea6b66&quot;&gt;Factory&lt;/font&gt;&lt;/h1&gt;" style="text;html=1;align=center;verticalAlign=middle;resizable=0;points=[];autosize=1;strokeColor=none;fillColor=none;" parent="1" vertex="1">
          <mxGeometry x="-245" y="301" width="110" height="70" as="geometry" />
        </mxCell>
        <mxCell id="JcLtWegY5_qB5tt3cv_g-39" style="edgeStyle=orthogonalEdgeStyle;rounded=0;orthogonalLoop=1;jettySize=auto;html=1;entryX=0.479;entryY=0.98;entryDx=0;entryDy=0;entryPerimeter=0;endArrow=block;endFill=0;fillColor=#ffe6cc;strokeColor=#d79b00;dashed=1;dashPattern=8 8;" parent="1" source="KDsEG0qkIhwoRO3FU9QZ-74" target="KDsEG0qkIhwoRO3FU9QZ-50" edge="1">
          <mxGeometry relative="1" as="geometry" />
        </mxCell>
        <mxCell id="JcLtWegY5_qB5tt3cv_g-40" style="edgeStyle=orthogonalEdgeStyle;rounded=0;orthogonalLoop=1;jettySize=auto;html=1;entryX=0.48;entryY=0.983;entryDx=0;entryDy=0;entryPerimeter=0;endArrow=block;endFill=0;fillColor=#ffe6cc;strokeColor=#d79b00;dashed=1;dashPattern=8 8;" parent="1" source="KDsEG0qkIhwoRO3FU9QZ-55" target="KDsEG0qkIhwoRO3FU9QZ-50" edge="1">
          <mxGeometry relative="1" as="geometry" />
        </mxCell>
        <mxCell id="JcLtWegY5_qB5tt3cv_g-41" value="&lt;h1&gt;&lt;font color=&quot;#ffb570&quot;&gt;Strategy&lt;/font&gt;&lt;/h1&gt;" style="text;html=1;align=center;verticalAlign=middle;resizable=0;points=[];autosize=1;strokeColor=none;fillColor=none;" parent="1" vertex="1">
          <mxGeometry x="1260" y="1264" width="120" height="70" as="geometry" />
        </mxCell>
        <mxCell id="p5AdowQUtNtMsJWCQkt6-11" value="DonationFacade" style="swimlane;fontStyle=1;align=center;verticalAlign=top;childLayout=stackLayout;horizontal=1;startSize=26;horizontalStack=0;resizeParent=1;resizeParentMax=0;resizeLast=0;collapsible=1;marginBottom=0;whiteSpace=wrap;html=1;fillColor=#cdc1ff;" parent="1" vertex="1">
          <mxGeometry x="890" y="432" width="390" height="212" as="geometry" />
        </mxCell>
        <mxCell id="p5AdowQUtNtMsJWCQkt6-29" value="&lt;div&gt;- Donor: donor&lt;/div&gt;" style="text;strokeColor=none;fillColor=#cdc1ff;align=left;verticalAlign=top;spacingLeft=4;spacingRight=4;overflow=hidden;rotatable=0;points=[[0,0.5],[1,0.5]];portConstraint=eastwest;whiteSpace=wrap;html=1;" parent="p5AdowQUtNtMsJWCQkt6-11" vertex="1">
          <mxGeometry y="26" width="390" height="26" as="geometry" />
        </mxCell>
        <mxCell id="p5AdowQUtNtMsJWCQkt6-13" value="" style="line;strokeWidth=1;fillColor=#cdc1ff;align=left;verticalAlign=middle;spacingTop=-1;spacingLeft=3;spacingRight=3;rotatable=0;labelPosition=right;points=[];portConstraint=eastwest;strokeColor=inherit;" parent="p5AdowQUtNtMsJWCQkt6-11" vertex="1">
          <mxGeometry y="52" width="390" height="8" as="geometry" />
        </mxCell>
        <mxCell id="p5AdowQUtNtMsJWCQkt6-35" value="+ update_donations_list(Donation donation, Donor, donor): void" style="text;strokeColor=none;fillColor=#cdc1ff;align=left;verticalAlign=top;spacingLeft=4;spacingRight=4;overflow=hidden;rotatable=0;points=[[0,0.5],[1,0.5]];portConstraint=eastwest;whiteSpace=wrap;html=1;" parent="p5AdowQUtNtMsJWCQkt6-11" vertex="1">
          <mxGeometry y="60" width="390" height="26" as="geometry" />
        </mxCell>
        <mxCell id="p5AdowQUtNtMsJWCQkt6-102" value="+ get_donor_donations(Donor, donor): void" style="text;strokeColor=none;fillColor=#cdc1ff;align=left;verticalAlign=top;spacingLeft=4;spacingRight=4;overflow=hidden;rotatable=0;points=[[0,0.5],[1,0.5]];portConstraint=eastwest;whiteSpace=wrap;html=1;" parent="p5AdowQUtNtMsJWCQkt6-11" vertex="1">
          <mxGeometry y="86" width="390" height="26" as="geometry" />
        </mxCell>
        <mxCell id="p5AdowQUtNtMsJWCQkt6-32" value="+ money_donation_setter(Donation Money_Donation): void" style="text;strokeColor=none;fillColor=#cdc1ff;align=left;verticalAlign=top;spacingLeft=4;spacingRight=4;overflow=hidden;rotatable=0;points=[[0,0.5],[1,0.5]];portConstraint=eastwest;whiteSpace=wrap;html=1;" parent="p5AdowQUtNtMsJWCQkt6-11" vertex="1">
          <mxGeometry y="112" width="390" height="26" as="geometry" />
        </mxCell>
        <mxCell id="p5AdowQUtNtMsJWCQkt6-33" value="+ blood_donation_setter(Donation Blood_Donation): void" style="text;strokeColor=none;fillColor=#cdc1ff;align=left;verticalAlign=top;spacingLeft=4;spacingRight=4;overflow=hidden;rotatable=0;points=[[0,0.5],[1,0.5]];portConstraint=eastwest;whiteSpace=wrap;html=1;" parent="p5AdowQUtNtMsJWCQkt6-11" vertex="1">
          <mxGeometry y="138" width="390" height="26" as="geometry" />
        </mxCell>
        <mxCell id="p5AdowQUtNtMsJWCQkt6-14" value="+ donateMoney(Donation Money_Donation): bool" style="text;strokeColor=none;fillColor=#cdc1ff;align=left;verticalAlign=top;spacingLeft=4;spacingRight=4;overflow=hidden;rotatable=0;points=[[0,0.5],[1,0.5]];portConstraint=eastwest;whiteSpace=wrap;html=1;" parent="p5AdowQUtNtMsJWCQkt6-11" vertex="1">
          <mxGeometry y="164" width="390" height="26" as="geometry" />
        </mxCell>
        <mxCell id="p5AdowQUtNtMsJWCQkt6-16" value="+ donateBlood(Donation Blood_Donation): bool" style="text;strokeColor=none;fillColor=#cdc1ff;align=left;verticalAlign=top;spacingLeft=4;spacingRight=4;overflow=hidden;rotatable=0;points=[[0,0.5],[1,0.5]];portConstraint=eastwest;whiteSpace=wrap;html=1;" parent="p5AdowQUtNtMsJWCQkt6-11" vertex="1">
          <mxGeometry y="190" width="390" height="22" as="geometry" />
        </mxCell>
        <mxCell id="p5AdowQUtNtMsJWCQkt6-18" value="" style="rounded=0;whiteSpace=wrap;html=1;fillColor=none;" parent="1" vertex="1">
          <mxGeometry x="1740" y="-82" width="420" height="340" as="geometry" />
        </mxCell>
        <mxCell id="p5AdowQUtNtMsJWCQkt6-23" value="&lt;b&gt;&lt;font style=&quot;font-size: 16px;&quot;&gt;Should be removed imo&lt;/font&gt;&lt;/b&gt;" style="text;html=1;align=center;verticalAlign=middle;whiteSpace=wrap;rounded=0;" parent="1" vertex="1">
          <mxGeometry x="1857.5" y="-30" width="195" height="30" as="geometry" />
        </mxCell>
        <mxCell id="p5AdowQUtNtMsJWCQkt6-47" value="&lt;h1&gt;&lt;font color=&quot;#7c5ff2&quot;&gt;Facade&lt;/font&gt;&lt;/h1&gt;" style="text;html=1;align=center;verticalAlign=middle;resizable=0;points=[];autosize=1;strokeColor=none;fillColor=none;fontColor=#CC6600;" parent="1" vertex="1">
          <mxGeometry x="750" y="412" width="110" height="70" as="geometry" />
        </mxCell>
        <mxCell id="p5AdowQUtNtMsJWCQkt6-92" style="edgeStyle=orthogonalEdgeStyle;rounded=0;orthogonalLoop=1;jettySize=auto;html=1;endArrow=block;endFill=0;fontColor=#b1ddf0;strokeColor=#24b3f0;" parent="1" source="p5AdowQUtNtMsJWCQkt6-56" edge="1">
          <mxGeometry relative="1" as="geometry">
            <mxPoint x="1200" y="60" as="targetPoint" />
            <Array as="points">
              <mxPoint x="870" y="160" />
              <mxPoint x="1200" y="160" />
            </Array>
          </mxGeometry>
        </mxCell>
        <mxCell id="p5AdowQUtNtMsJWCQkt6-96" style="edgeStyle=orthogonalEdgeStyle;rounded=0;orthogonalLoop=1;jettySize=auto;html=1;endArrow=open;endFill=0;fontColor=#b1ddf0;strokeColor=#24b3f0;" parent="1" source="p5AdowQUtNtMsJWCQkt6-56" edge="1">
          <mxGeometry relative="1" as="geometry">
            <mxPoint x="1040" y="430" as="targetPoint" />
          </mxGeometry>
        </mxCell>
        <mxCell id="p5AdowQUtNtMsJWCQkt6-56" value="MakeBloodDonation" style="swimlane;fontStyle=1;align=center;verticalAlign=top;childLayout=stackLayout;horizontal=1;startSize=26;horizontalStack=0;resizeParent=1;resizeParentMax=0;resizeLast=0;collapsible=1;marginBottom=0;whiteSpace=wrap;html=1;fillColor=#b1ddf0;strokeColor=#10739e;" parent="1" vertex="1">
          <mxGeometry x="720" y="209" width="300" height="100" as="geometry">
            <mxRectangle x="610" y="100" width="80" height="30" as="alternateBounds" />
          </mxGeometry>
        </mxCell>
        <mxCell id="p5AdowQUtNtMsJWCQkt6-71" value="- receiver: DonationFacade&amp;nbsp;" style="text;strokeColor=#10739e;fillColor=#b1ddf0;align=left;verticalAlign=top;spacingLeft=4;spacingRight=4;overflow=hidden;rotatable=0;points=[[0,0.5],[1,0.5]];portConstraint=eastwest;whiteSpace=wrap;html=1;" parent="p5AdowQUtNtMsJWCQkt6-56" vertex="1">
          <mxGeometry y="26" width="300" height="24" as="geometry" />
        </mxCell>
        <mxCell id="p5AdowQUtNtMsJWCQkt6-58" value="" style="line;strokeWidth=1;fillColor=#b1ddf0;align=left;verticalAlign=middle;spacingTop=-1;spacingLeft=3;spacingRight=3;rotatable=0;labelPosition=right;points=[];portConstraint=eastwest;strokeColor=#10739e;" parent="p5AdowQUtNtMsJWCQkt6-56" vertex="1">
          <mxGeometry y="50" width="300" height="8" as="geometry" />
        </mxCell>
        <mxCell id="HFf-VFwJF2qIIWDYnhbF-17" value="&lt;div&gt;- execute(DonationFacade receiver, Donor, donor): bool&lt;/div&gt;" style="text;strokeColor=#58bae4;fillColor=#b1ddf0;align=left;verticalAlign=top;spacingLeft=4;spacingRight=4;overflow=hidden;rotatable=0;points=[[0,0.5],[1,0.5]];portConstraint=eastwest;whiteSpace=wrap;html=1;" parent="p5AdowQUtNtMsJWCQkt6-56" vertex="1">
          <mxGeometry y="58" width="300" height="42" as="geometry" />
        </mxCell>
        <mxCell id="p5AdowQUtNtMsJWCQkt6-94" style="edgeStyle=orthogonalEdgeStyle;rounded=0;orthogonalLoop=1;jettySize=auto;html=1;endArrow=block;endFill=0;strokeColor=#24b3f0;" parent="1" source="p5AdowQUtNtMsJWCQkt6-59" edge="1">
          <mxGeometry relative="1" as="geometry">
            <mxPoint x="1208" y="60" as="targetPoint" />
          </mxGeometry>
        </mxCell>
        <mxCell id="p5AdowQUtNtMsJWCQkt6-97" style="edgeStyle=orthogonalEdgeStyle;rounded=0;orthogonalLoop=1;jettySize=auto;html=1;endArrow=open;endFill=0;fontColor=#b1ddf0;strokeColor=#24b3f0;" parent="1" source="p5AdowQUtNtMsJWCQkt6-59" edge="1">
          <mxGeometry relative="1" as="geometry">
            <mxPoint x="1080" y="430" as="targetPoint" />
          </mxGeometry>
        </mxCell>
        <mxCell id="p5AdowQUtNtMsJWCQkt6-59" value="MakeMoneyDonation" style="swimlane;fontStyle=1;align=center;verticalAlign=top;childLayout=stackLayout;horizontal=1;startSize=26;horizontalStack=0;resizeParent=1;resizeParentMax=0;resizeLast=0;collapsible=1;marginBottom=0;whiteSpace=wrap;html=1;fillColor=#b1ddf0;strokeColor=#10739e;" parent="1" vertex="1">
          <mxGeometry x="1058" y="209" width="300" height="100" as="geometry">
            <mxRectangle x="610" y="100" width="80" height="30" as="alternateBounds" />
          </mxGeometry>
        </mxCell>
        <mxCell id="p5AdowQUtNtMsJWCQkt6-73" value="- receiver: DonationFacade&amp;nbsp;" style="text;strokeColor=#10739e;fillColor=#b1ddf0;align=left;verticalAlign=top;spacingLeft=4;spacingRight=4;overflow=hidden;rotatable=0;points=[[0,0.5],[1,0.5]];portConstraint=eastwest;whiteSpace=wrap;html=1;" parent="p5AdowQUtNtMsJWCQkt6-59" vertex="1">
          <mxGeometry y="26" width="300" height="24" as="geometry" />
        </mxCell>
        <mxCell id="p5AdowQUtNtMsJWCQkt6-61" value="" style="line;strokeWidth=1;fillColor=#b1ddf0;align=left;verticalAlign=middle;spacingTop=-1;spacingLeft=3;spacingRight=3;rotatable=0;labelPosition=right;points=[];portConstraint=eastwest;strokeColor=#10739e;" parent="p5AdowQUtNtMsJWCQkt6-59" vertex="1">
          <mxGeometry y="50" width="300" height="8" as="geometry" />
        </mxCell>
        <mxCell id="HFf-VFwJF2qIIWDYnhbF-18" value="&lt;div&gt;- execute(DonationFacade receiver, Donor, donor): bool&lt;/div&gt;" style="text;strokeColor=#58bae4;fillColor=#b1ddf0;align=left;verticalAlign=top;spacingLeft=4;spacingRight=4;overflow=hidden;rotatable=0;points=[[0,0.5],[1,0.5]];portConstraint=eastwest;whiteSpace=wrap;html=1;" parent="p5AdowQUtNtMsJWCQkt6-59" vertex="1">
          <mxGeometry y="58" width="300" height="42" as="geometry" />
        </mxCell>
        <mxCell id="p5AdowQUtNtMsJWCQkt6-95" style="edgeStyle=orthogonalEdgeStyle;rounded=0;orthogonalLoop=1;jettySize=auto;html=1;endArrow=block;endFill=0;fontColor=#b1ddf0;strokeColor=#24b3f0;" parent="1" edge="1">
          <mxGeometry relative="1" as="geometry">
            <mxPoint x="1220" y="60" as="targetPoint" />
            <Array as="points">
              <mxPoint x="1520" y="160" />
              <mxPoint x="1220" y="160" />
            </Array>
            <mxPoint x="1520" y="209" as="sourcePoint" />
          </mxGeometry>
        </mxCell>
        <mxCell id="p5AdowQUtNtMsJWCQkt6-99" style="edgeStyle=orthogonalEdgeStyle;rounded=0;orthogonalLoop=1;jettySize=auto;html=1;endArrow=open;endFill=0;fontColor=#b1ddf0;strokeColor=#24b3f0;" parent="1" edge="1">
          <mxGeometry relative="1" as="geometry">
            <mxPoint x="1120" y="430" as="targetPoint" />
            <Array as="points">
              <mxPoint x="1520" y="400" />
              <mxPoint x="1120" y="400" />
            </Array>
            <mxPoint x="1520" y="309" as="sourcePoint" />
          </mxGeometry>
        </mxCell>
        <mxCell id="p5AdowQUtNtMsJWCQkt6-79" value="" style="endArrow=none;html=1;endSize=12;startArrow=diamondThin;startSize=12;startFill=1;edgeStyle=orthogonalEdgeStyle;align=left;verticalAlign=bottom;rounded=0;entryX=0.464;entryY=1.015;entryDx=0;entryDy=0;entryPerimeter=0;endFill=0;exitX=0.66;exitY=0.014;exitDx=0;exitDy=0;exitPerimeter=0;" parent="1" source="KDsEG0qkIhwoRO3FU9QZ-23" target="p5AdowQUtNtMsJWCQkt6-18" edge="1">
          <mxGeometry x="-1" y="3" relative="1" as="geometry">
            <mxPoint x="3128.3999999999996" y="890.3229999999999" as="sourcePoint" />
            <mxPoint x="1371" y="249" as="targetPoint" />
            <Array as="points">
              <mxPoint x="1158" y="820" />
              <mxPoint x="1935" y="820" />
            </Array>
          </mxGeometry>
        </mxCell>
        <mxCell id="p5AdowQUtNtMsJWCQkt6-84" style="edgeStyle=orthogonalEdgeStyle;rounded=0;orthogonalLoop=1;jettySize=auto;html=1;endArrow=open;endFill=0;strokeColor=#7556f0;" parent="1" source="p5AdowQUtNtMsJWCQkt6-11" edge="1">
          <mxGeometry relative="1" as="geometry">
            <mxPoint x="1085" y="750" as="targetPoint" />
          </mxGeometry>
        </mxCell>
        <mxCell id="p5AdowQUtNtMsJWCQkt6-100" style="edgeStyle=orthogonalEdgeStyle;rounded=0;orthogonalLoop=1;jettySize=auto;html=1;endArrow=diamond;endFill=0;endSize=13;fontColor=#b1ddf0;strokeColor=#24b3f0;exitX=1.004;exitY=0.561;exitDx=0;exitDy=0;exitPerimeter=0;" parent="1" edge="1">
          <mxGeometry relative="1" as="geometry">
            <mxPoint x="1020" y="20" as="targetPoint" />
            <mxPoint x="606" y="423.95199999999977" as="sourcePoint" />
            <Array as="points">
              <mxPoint x="606" y="400" />
              <mxPoint x="620" y="400" />
              <mxPoint x="620" y="20" />
            </Array>
          </mxGeometry>
        </mxCell>
        <mxCell id="p5AdowQUtNtMsJWCQkt6-101" value="&lt;h1&gt;&lt;font color=&quot;#4fc1f3&quot;&gt;Command&lt;/font&gt;&lt;/h1&gt;" style="text;html=1;align=center;verticalAlign=middle;resizable=0;points=[];autosize=1;strokeColor=none;fillColor=none;fontColor=#CC6600;" parent="1" vertex="1">
          <mxGeometry x="702" y="50" width="140" height="70" as="geometry" />
        </mxCell>
        <mxCell id="p5AdowQUtNtMsJWCQkt6-109" value="DonationRemote" style="swimlane;fontStyle=1;align=center;verticalAlign=top;childLayout=stackLayout;horizontal=1;startSize=26;horizontalStack=0;resizeParent=1;resizeParentMax=0;resizeLast=0;collapsible=1;marginBottom=0;whiteSpace=wrap;html=1;fillColor=#b1ddf0;" parent="1" vertex="1">
          <mxGeometry x="425" y="324" width="250" height="146" as="geometry" />
        </mxCell>
        <mxCell id="p5AdowQUtNtMsJWCQkt6-110" value="- Donor: donor" style="text;strokeColor=none;fillColor=#b1ddf0;align=left;verticalAlign=top;spacingLeft=4;spacingRight=4;overflow=hidden;rotatable=0;points=[[0,0.5],[1,0.5]];portConstraint=eastwest;whiteSpace=wrap;html=1;" parent="p5AdowQUtNtMsJWCQkt6-109" vertex="1">
          <mxGeometry y="26" width="250" height="24" as="geometry" />
        </mxCell>
        <mxCell id="HFf-VFwJF2qIIWDYnhbF-7" value="- Command: slot" style="text;strokeColor=none;fillColor=#b1ddf0;align=left;verticalAlign=top;spacingLeft=4;spacingRight=4;overflow=hidden;rotatable=0;points=[[0,0.5],[1,0.5]];portConstraint=eastwest;whiteSpace=wrap;html=1;" parent="p5AdowQUtNtMsJWCQkt6-109" vertex="1">
          <mxGeometry y="50" width="250" height="24" as="geometry" />
        </mxCell>
        <mxCell id="p5AdowQUtNtMsJWCQkt6-111" value="" style="line;strokeWidth=1;fillColor=#b1ddf0;align=left;verticalAlign=middle;spacingTop=-1;spacingLeft=3;spacingRight=3;rotatable=0;labelPosition=right;points=[];portConstraint=eastwest;strokeColor=inherit;" parent="p5AdowQUtNtMsJWCQkt6-109" vertex="1">
          <mxGeometry y="74" width="250" height="8" as="geometry" />
        </mxCell>
        <mxCell id="p5AdowQUtNtMsJWCQkt6-112" value="- SetCommand(Command command): bool" style="text;strokeColor=none;fillColor=#b1ddf0;align=left;verticalAlign=top;spacingLeft=4;spacingRight=4;overflow=hidden;rotatable=0;points=[[0,0.5],[1,0.5]];portConstraint=eastwest;whiteSpace=wrap;html=1;" parent="p5AdowQUtNtMsJWCQkt6-109" vertex="1">
          <mxGeometry y="82" width="250" height="32" as="geometry" />
        </mxCell>
        <mxCell id="p5AdowQUtNtMsJWCQkt6-113" value="- ExecuteCommand(): bool" style="text;strokeColor=none;fillColor=#b1ddf0;align=left;verticalAlign=top;spacingLeft=4;spacingRight=4;overflow=hidden;rotatable=0;points=[[0,0.5],[1,0.5]];portConstraint=eastwest;whiteSpace=wrap;html=1;" parent="p5AdowQUtNtMsJWCQkt6-109" vertex="1">
          <mxGeometry y="114" width="250" height="32" as="geometry" />
        </mxCell>
        <mxCell id="p5AdowQUtNtMsJWCQkt6-117" style="edgeStyle=orthogonalEdgeStyle;rounded=0;orthogonalLoop=1;jettySize=auto;html=1;entryX=-0.002;entryY=0.363;entryDx=0;entryDy=0;entryPerimeter=0;endArrow=diamond;endFill=1;" parent="1" source="p5AdowQUtNtMsJWCQkt6-107" target="p5AdowQUtNtMsJWCQkt6-112" edge="1">
          <mxGeometry relative="1" as="geometry" />
        </mxCell>
        <mxCell id="HFf-VFwJF2qIIWDYnhbF-13" value="&amp;lt;&amp;lt;Abstract&amp;gt;&amp;gt;&lt;div&gt;Command&lt;/div&gt;" style="swimlane;fontStyle=1;align=center;verticalAlign=top;childLayout=stackLayout;horizontal=1;startSize=50;horizontalStack=0;resizeParent=1;resizeParentMax=0;resizeLast=0;collapsible=1;marginBottom=0;whiteSpace=wrap;html=1;fillColor=#b1ddf0;strokeColor=#257CA3;" parent="1" vertex="1">
          <mxGeometry x="1020" y="-60" width="392" height="114" as="geometry" />
        </mxCell>
        <mxCell id="HFf-VFwJF2qIIWDYnhbF-14" value="- donor: Donor" style="text;strokeColor=#58bae4;fillColor=#b1ddf0;align=left;verticalAlign=top;spacingLeft=4;spacingRight=4;overflow=hidden;rotatable=0;points=[[0,0.5],[1,0.5]];portConstraint=eastwest;whiteSpace=wrap;html=1;" parent="HFf-VFwJF2qIIWDYnhbF-13" vertex="1">
          <mxGeometry y="50" width="392" height="30" as="geometry" />
        </mxCell>
        <mxCell id="HFf-VFwJF2qIIWDYnhbF-15" value="" style="line;strokeWidth=1;fillColor=#b1ddf0;align=left;verticalAlign=middle;spacingTop=-1;spacingLeft=3;spacingRight=3;rotatable=0;labelPosition=right;points=[];portConstraint=eastwest;strokeColor=#58bae4;" parent="HFf-VFwJF2qIIWDYnhbF-13" vertex="1">
          <mxGeometry y="80" width="392" height="8" as="geometry" />
        </mxCell>
        <mxCell id="HFf-VFwJF2qIIWDYnhbF-16" value="&lt;div&gt;- execute(DonationFacade donation_facade, Donor, donor): bool&lt;/div&gt;" style="text;strokeColor=#58bae4;fillColor=#b1ddf0;align=left;verticalAlign=top;spacingLeft=4;spacingRight=4;overflow=hidden;rotatable=0;points=[[0,0.5],[1,0.5]];portConstraint=eastwest;whiteSpace=wrap;html=1;" parent="HFf-VFwJF2qIIWDYnhbF-13" vertex="1">
          <mxGeometry y="88" width="392" height="26" as="geometry" />
        </mxCell>
        <mxCell id="HFf-VFwJF2qIIWDYnhbF-20" value="GetListOfDonations" style="swimlane;fontStyle=1;align=center;verticalAlign=top;childLayout=stackLayout;horizontal=1;startSize=26;horizontalStack=0;resizeParent=1;resizeParentMax=0;resizeLast=0;collapsible=1;marginBottom=0;whiteSpace=wrap;html=1;fillColor=#b1ddf0;strokeColor=#10739e;" parent="1" vertex="1">
          <mxGeometry x="1370" y="209" width="300" height="100" as="geometry">
            <mxRectangle x="610" y="100" width="80" height="30" as="alternateBounds" />
          </mxGeometry>
        </mxCell>
        <mxCell id="HFf-VFwJF2qIIWDYnhbF-21" value="- receiver: DonationFacade&amp;nbsp;" style="text;strokeColor=#10739e;fillColor=#b1ddf0;align=left;verticalAlign=top;spacingLeft=4;spacingRight=4;overflow=hidden;rotatable=0;points=[[0,0.5],[1,0.5]];portConstraint=eastwest;whiteSpace=wrap;html=1;" parent="HFf-VFwJF2qIIWDYnhbF-20" vertex="1">
          <mxGeometry y="26" width="300" height="24" as="geometry" />
        </mxCell>
        <mxCell id="HFf-VFwJF2qIIWDYnhbF-22" value="" style="line;strokeWidth=1;fillColor=#b1ddf0;align=left;verticalAlign=middle;spacingTop=-1;spacingLeft=3;spacingRight=3;rotatable=0;labelPosition=right;points=[];portConstraint=eastwest;strokeColor=#10739e;" parent="HFf-VFwJF2qIIWDYnhbF-20" vertex="1">
          <mxGeometry y="50" width="300" height="8" as="geometry" />
        </mxCell>
        <mxCell id="HFf-VFwJF2qIIWDYnhbF-23" value="&lt;div&gt;- execute(DonationFacade receiver, Donor, donor): bool&lt;/div&gt;" style="text;strokeColor=#58bae4;fillColor=#b1ddf0;align=left;verticalAlign=top;spacingLeft=4;spacingRight=4;overflow=hidden;rotatable=0;points=[[0,0.5],[1,0.5]];portConstraint=eastwest;whiteSpace=wrap;html=1;" parent="HFf-VFwJF2qIIWDYnhbF-20" vertex="1">
          <mxGeometry y="58" width="300" height="42" as="geometry" />
        </mxCell>
        <mxCell id="HFf-VFwJF2qIIWDYnhbF-25" style="rounded=0;orthogonalLoop=1;jettySize=auto;html=1;endArrow=none;endFill=0;strokeColor=#cdc1ff;strokeWidth=5;" parent="1" edge="1">
          <mxGeometry relative="1" as="geometry">
            <mxPoint x="230" y="750" as="targetPoint" />
            <mxPoint x="1830" y="750" as="sourcePoint" />
          </mxGeometry>
        </mxCell>
        <mxCell id="HFf-VFwJF2qIIWDYnhbF-27" style="rounded=0;orthogonalLoop=1;jettySize=auto;html=1;endArrow=none;endFill=0;strokeColor=#cdc1ff;strokeWidth=5;" parent="1" edge="1">
          <mxGeometry relative="1" as="geometry">
            <mxPoint x="1830" y="2160" as="targetPoint" />
            <mxPoint x="1830" y="740" as="sourcePoint" />
            <Array as="points">
              <mxPoint x="1830" y="960" />
            </Array>
          </mxGeometry>
        </mxCell>
        <mxCell id="HFf-VFwJF2qIIWDYnhbF-28" style="rounded=0;orthogonalLoop=1;jettySize=auto;html=1;endArrow=none;endFill=0;strokeColor=#cdc1ff;strokeWidth=5;" parent="1" edge="1">
          <mxGeometry relative="1" as="geometry">
            <mxPoint x="230" y="2160" as="targetPoint" />
            <mxPoint x="1830" y="2160" as="sourcePoint" />
          </mxGeometry>
        </mxCell>
        <mxCell id="HFf-VFwJF2qIIWDYnhbF-29" style="rounded=0;orthogonalLoop=1;jettySize=auto;html=1;endArrow=none;endFill=0;strokeColor=#cdc1ff;strokeWidth=5;" parent="1" edge="1">
          <mxGeometry relative="1" as="geometry">
            <mxPoint x="230" y="2160" as="targetPoint" />
            <mxPoint x="230" y="750" as="sourcePoint" />
          </mxGeometry>
        </mxCell>
        <mxCell id="HFf-VFwJF2qIIWDYnhbF-45" style="edgeStyle=orthogonalEdgeStyle;rounded=0;orthogonalLoop=1;jettySize=auto;html=1;endArrow=block;endFill=0;strokeColor=#b85450;entryX=0.688;entryY=0.962;entryDx=0;entryDy=0;entryPerimeter=0;" parent="1" source="HFf-VFwJF2qIIWDYnhbF-35" target="HFf-VFwJF2qIIWDYnhbF-52" edge="1">
          <mxGeometry relative="1" as="geometry">
            <mxPoint x="-990" y="380" as="targetPoint" />
          </mxGeometry>
        </mxCell>
        <mxCell id="HFf-VFwJF2qIIWDYnhbF-35" value="OutreachEventFactory" style="swimlane;fontStyle=1;align=center;verticalAlign=top;childLayout=stackLayout;horizontal=1;startSize=26;horizontalStack=0;resizeParent=1;resizeParentMax=0;resizeLast=0;collapsible=1;marginBottom=0;whiteSpace=wrap;html=1;fillColor=#f8cecc;strokeColor=#b85450;" parent="1" vertex="1">
          <mxGeometry x="-1020" y="500" width="170" height="52" as="geometry" />
        </mxCell>
        <mxCell id="HFf-VFwJF2qIIWDYnhbF-57" value="+ eventFactory(): Event" style="text;strokeColor=#b85450;fillColor=#f8cecc;align=left;verticalAlign=top;spacingLeft=4;spacingRight=4;overflow=hidden;rotatable=0;points=[[0,0.5],[1,0.5]];portConstraint=eastwest;whiteSpace=wrap;html=1;" parent="HFf-VFwJF2qIIWDYnhbF-35" vertex="1">
          <mxGeometry y="26" width="170" height="26" as="geometry" />
        </mxCell>
        <mxCell id="HFf-VFwJF2qIIWDYnhbF-46" style="edgeStyle=orthogonalEdgeStyle;rounded=0;orthogonalLoop=1;jettySize=auto;html=1;endArrow=block;endFill=0;strokeColor=#b85450;exitX=0.75;exitY=0;exitDx=0;exitDy=0;entryX=0.429;entryY=0.992;entryDx=0;entryDy=0;entryPerimeter=0;" parent="1" target="HFf-VFwJF2qIIWDYnhbF-52" edge="1">
          <mxGeometry relative="1" as="geometry">
            <mxPoint x="-1029" y="390" as="targetPoint" />
            <mxPoint x="-1100" y="517" as="sourcePoint" />
            <Array as="points">
              <mxPoint x="-1100" y="443" />
              <mxPoint x="-1031" y="443" />
              <mxPoint x="-1031" y="390" />
              <mxPoint x="-1031" y="390" />
            </Array>
          </mxGeometry>
        </mxCell>
        <mxCell id="HFf-VFwJF2qIIWDYnhbF-38" value="WorkShopEventFactory" style="swimlane;fontStyle=1;align=center;verticalAlign=top;childLayout=stackLayout;horizontal=1;startSize=26;horizontalStack=0;resizeParent=1;resizeParentMax=0;resizeLast=0;collapsible=1;marginBottom=0;whiteSpace=wrap;html=1;fillColor=#f8cecc;strokeColor=#b85450;" parent="1" vertex="1">
          <mxGeometry x="-1220" y="500" width="170" height="52" as="geometry" />
        </mxCell>
        <mxCell id="HFf-VFwJF2qIIWDYnhbF-56" value="+ eventFactory(): Event" style="text;strokeColor=#b85450;fillColor=#f8cecc;align=left;verticalAlign=top;spacingLeft=4;spacingRight=4;overflow=hidden;rotatable=0;points=[[0,0.5],[1,0.5]];portConstraint=eastwest;whiteSpace=wrap;html=1;" parent="HFf-VFwJF2qIIWDYnhbF-38" vertex="1">
          <mxGeometry y="26" width="170" height="26" as="geometry" />
        </mxCell>
        <mxCell id="HFf-VFwJF2qIIWDYnhbF-47" style="edgeStyle=orthogonalEdgeStyle;rounded=0;orthogonalLoop=1;jettySize=auto;html=1;endArrow=block;endFill=0;strokeColor=#b85450;entryX=0.25;entryY=1;entryDx=0;entryDy=0;" parent="1" source="HFf-VFwJF2qIIWDYnhbF-41" target="HFf-VFwJF2qIIWDYnhbF-48" edge="1">
          <mxGeometry relative="1" as="geometry">
            <mxPoint x="-1060" y="360" as="targetPoint" />
            <Array as="points">
              <mxPoint x="-1335" y="410" />
              <mxPoint x="-1060" y="410" />
            </Array>
          </mxGeometry>
        </mxCell>
        <mxCell id="HFf-VFwJF2qIIWDYnhbF-41" value="FundraiserEventFactory" style="swimlane;fontStyle=1;align=center;verticalAlign=top;childLayout=stackLayout;horizontal=1;startSize=26;horizontalStack=0;resizeParent=1;resizeParentMax=0;resizeLast=0;collapsible=1;marginBottom=0;whiteSpace=wrap;html=1;fillColor=#f8cecc;strokeColor=#b85450;" parent="1" vertex="1">
          <mxGeometry x="-1420" y="500" width="170" height="52" as="geometry" />
        </mxCell>
        <mxCell id="HFf-VFwJF2qIIWDYnhbF-55" value="+ eventFactory(): Event" style="text;strokeColor=#b85450;fillColor=#f8cecc;align=left;verticalAlign=top;spacingLeft=4;spacingRight=4;overflow=hidden;rotatable=0;points=[[0,0.5],[1,0.5]];portConstraint=eastwest;whiteSpace=wrap;html=1;" parent="HFf-VFwJF2qIIWDYnhbF-41" vertex="1">
          <mxGeometry y="26" width="170" height="26" as="geometry" />
        </mxCell>
        <mxCell id="HFf-VFwJF2qIIWDYnhbF-48" value="&amp;lt;&amp;lt;Abstract&amp;gt;&amp;gt;&lt;div&gt;EventFactory&lt;/div&gt;" style="swimlane;fontStyle=1;align=center;verticalAlign=top;childLayout=stackLayout;horizontal=1;startSize=54;horizontalStack=0;resizeParent=1;resizeParentMax=0;resizeLast=0;collapsible=1;marginBottom=0;whiteSpace=wrap;html=1;fillColor=#f8cecc;strokeColor=#b85450;" parent="1" vertex="1">
          <mxGeometry x="-1100" y="267" width="160" height="104" as="geometry" />
        </mxCell>
        <mxCell id="HFf-VFwJF2qIIWDYnhbF-51" value="+ createEvent(): Event" style="text;strokeColor=#b85450;fillColor=#f8cecc;align=left;verticalAlign=top;spacingLeft=4;spacingRight=4;overflow=hidden;rotatable=0;points=[[0,0.5],[1,0.5]];portConstraint=eastwest;whiteSpace=wrap;html=1;" parent="HFf-VFwJF2qIIWDYnhbF-48" vertex="1">
          <mxGeometry y="54" width="160" height="24" as="geometry" />
        </mxCell>
        <mxCell id="HFf-VFwJF2qIIWDYnhbF-52" value="+ eventFactory(): Event" style="text;strokeColor=#b85450;fillColor=#f8cecc;align=left;verticalAlign=top;spacingLeft=4;spacingRight=4;overflow=hidden;rotatable=0;points=[[0,0.5],[1,0.5]];portConstraint=eastwest;whiteSpace=wrap;html=1;" parent="HFf-VFwJF2qIIWDYnhbF-48" vertex="1">
          <mxGeometry y="78" width="160" height="26" as="geometry" />
        </mxCell>
        <mxCell id="hL_7e05IsGehtMUu-lTt-1" style="edgeStyle=orthogonalEdgeStyle;rounded=0;orthogonalLoop=1;jettySize=auto;html=1;entryX=0.442;entryY=1.067;entryDx=0;entryDy=0;entryPerimeter=0;endArrow=diamondThin;endFill=0;endSize=12;" edge="1" parent="1" source="p5AdowQUtNtMsJWCQkt6-11" target="HFf-VFwJF2qIIWDYnhbF-6">
          <mxGeometry relative="1" as="geometry">
            <Array as="points">
              <mxPoint x="221" y="538" />
            </Array>
          </mxGeometry>
        </mxCell>
      </root>
    </mxGraphModel>
  </diagram>
</mxfile>
